<svg width="220" height="220" viewBox="0 0 220 220" fill="none" xmlns="http://www.w3.org/2000/svg">
<path d="M63.8 17.6H110V40.7L63.8 17.6ZM156.2 17.6V63.8H133.1L156.2 17.6ZM156.2 202.4H110V179.3L156.2 202.4ZM63.8 202.4V156.2H86.9L63.8 202.4ZM17.6 63.8H63.8V86.9L17.6 63.8ZM202.4 63.8V110H179.3L202.4 63.8ZM202.4 156.2H156.2V133.1L202.4 156.2ZM17.6 156.2V110H40.7L17.6 156.2Z" fill="#2E608C"/>
<path d="M17.6 63.8V17.6H40.7L17.6 63.8ZM156.2 17.6H202.4V40.7L156.2 17.6ZM202.4 156.2V202.4H179.3L202.4 156.2ZM63.8 202.4H17.6V179.3L63.8 202.4Z" fill="#5993C7"/>
<path d="M63.8 63.8H110V110H63.8V63.8ZM80.52 92.4C80.2877 94.1108 80.4243 95.8515 80.9204 97.5052C81.4166 99.1588 82.2609 100.687 83.3966 101.988C84.5324 103.288 85.9332 104.33 87.5051 105.044C89.077 105.758 90.7835 106.128 92.51 106.128C94.2365 106.128 95.943 105.758 97.5149 105.044C99.0868 104.33 100.488 103.288 101.623 101.988C102.759 100.687 103.603 99.1588 104.1 97.5052C104.596 95.8515 104.732 94.1108 104.5 92.4C104.732 90.6892 104.596 88.9485 104.1 87.2948C103.603 85.6412 102.759 84.1128 101.623 82.8125C100.488 81.5121 99.0868 80.4699 97.5149 79.7558C95.943 79.0416 94.2365 78.6722 92.51 78.6722C90.7835 78.6722 89.077 79.0416 87.5051 79.7558C85.9332 80.4699 84.5324 81.5121 83.3966 82.8125C82.2609 84.1128 81.4166 85.6412 80.9204 87.2948C80.4243 88.9485 80.2877 90.6892 80.52 92.4ZM156.2 63.8V110H110V63.8H156.2ZM115.5 92.4C115.268 94.1108 115.404 95.8515 115.9 97.5052C116.397 99.1588 117.241 100.687 118.377 101.988C119.512 103.288 120.913 104.33 122.485 105.044C124.057 105.758 125.763 106.128 127.49 106.128C129.216 106.128 130.923 105.758 132.495 105.044C134.067 104.33 135.468 103.288 136.603 101.988C137.739 100.687 138.583 99.1588 139.08 97.5052C139.576 95.8515 139.712 94.1108 139.48 92.4C139.712 90.6892 139.576 88.9485 139.08 87.2948C138.583 85.6412 137.739 84.1128 136.603 82.8125C135.468 81.5121 134.067 80.4699 132.495 79.7558C130.923 79.0416 129.216 78.6722 127.49 78.6722C125.763 78.6722 124.057 79.0416 122.485 79.7558C120.913 80.4699 119.512 81.5121 118.377 82.8125C117.241 84.1128 116.397 85.6412 115.9 87.2948C115.404 88.9485 115.268 90.6892 115.5 92.4ZM156.2 156.2H110V110H156.2V156.2ZM115.5 127.6C115.268 129.311 115.404 131.052 115.9 132.705C116.397 134.359 117.241 135.887 118.377 137.188C119.512 138.488 120.913 139.53 122.485 140.244C124.057 140.958 125.763 141.328 127.49 141.328C129.216 141.328 130.923 140.958 132.495 140.244C134.067 139.53 135.468 138.488 136.603 137.188C137.739 135.887 138.583 134.359 139.08 132.705C139.576 131.052 139.712 129.311 139.48 127.6C139.712 125.889 139.576 124.148 139.08 122.495C138.583 120.841 137.739 119.313 136.603 118.012C135.468 116.712 134.067 115.67 132.495 114.956C130.923 114.242 129.216 113.872 127.49 113.872C125.763 113.872 124.057 114.242 122.485 114.956C120.913 115.67 119.512 116.712 118.377 118.012C117.241 119.313 116.397 120.841 115.9 122.495C115.404 124.148 115.268 125.889 115.5 127.6ZM63.8 156.2V110H110V156.2H63.8ZM80.52 127.6C80.2877 129.311 80.4243 131.052 80.9204 132.705C81.4166 134.359 82.2609 135.887 83.3966 137.188C84.5324 138.488 85.9332 139.53 87.5051 140.244C89.077 140.958 90.7835 141.328 92.51 141.328C94.2365 141.328 95.943 140.958 97.5149 140.244C99.0868 139.53 100.488 138.488 101.623 137.188C102.759 135.887 103.603 134.359 104.1 132.705C104.596 131.052 104.732 129.311 104.5 127.6C104.732 125.889 104.596 124.148 104.1 122.495C103.603 120.841 102.759 119.313 101.623 118.012C100.488 116.712 99.0868 115.67 97.5149 114.956C95.943 114.242 94.2365 113.872 92.51 113.872C90.7835 113.872 89.077 114.242 87.5051 114.956C85.9332 115.67 84.5324 116.712 83.3966 118.012C82.2609 119.313 81.4166 120.841 80.9204 122.495C80.4243 124.148 80.2877 125.889 80.52 127.6Z" fill="#ACC9E3"/>
</svg>
