<svg width="40" height="46" viewBox="0 0 40 46" fill="none" xmlns="http://www.w3.org/2000/svg">
<path d="M40 46L29.5 36L30.76 40H5C3.67392 40 2.40215 39.4732 1.46447 38.5355C0.526784 37.5979 0 36.3261 0 35V5C0 3.67392 0.526784 2.40215 1.46447 1.46447C2.40215 0.526784 3.67392 0 5 0H35C36.3261 0 37.5979 0.526784 38.5355 1.46447C39.4732 2.40215 40 3.67392 40 5V46ZM20 11.6C14.64 11.6 10.88 13.9 10.88 13.9C12.94 12.06 16.54 11 16.54 11L16.2 10.66C12.82 10.72 9.76 13.06 9.76 13.06C6.32 20.24 6.54 26.44 6.54 26.44C9.34 30.06 13.5 29.8 13.5 29.8L14.92 28C12.42 27.46 10.84 25.24 10.84 25.24C10.84 25.24 14.6 27.8 20 27.8C25.4 27.8 29.16 25.24 29.16 25.24C29.16 25.24 27.58 27.46 25.08 28L26.5 29.8C26.5 29.8 30.66 30.06 33.46 26.44C33.46 26.44 33.68 20.24 30.24 13.06C30.24 13.06 27.18 10.72 23.8 10.66L23.46 11C23.46 11 27.06 12.06 29.12 13.9C29.12 13.9 25.36 11.6 20 11.6ZM15.86 19.18C17.16 19.18 18.22 20.32 18.2 21.72C18.2 23.1 17.16 24.26 15.86 24.26C14.58 24.26 13.54 23.1 13.54 21.72C13.54 20.32 14.56 19.18 15.86 19.18ZM24.2 19.18C25.5 19.18 26.54 20.32 26.54 21.72C26.54 23.1 25.5 24.26 24.2 24.26C22.92 24.26 21.88 23.1 21.88 21.72C21.88 20.32 22.9 19.18 24.2 19.18Z" fill="black"/>
</svg>
