<svg width="24" height="24" viewBox="0 0 24 24" fill="none" xmlns="http://www.w3.org/2000/svg">
<g clip-path="url(#clip0_1_791)">
<path d="M23.3003 12H0.800293H23.3003Z" fill="black"/>
<path d="M23.3003 12H0.800293" stroke="white" stroke-width="1.5" stroke-miterlimit="10" stroke-linecap="round" stroke-linejoin="round"/>
<path d="M12.0002 23.2999C18.241 23.2999 23.3002 18.2408 23.3002 12C23.3002 5.75913 18.241 0.699951 12.0002 0.699951C5.75938 0.699951 0.700195 5.75913 0.700195 12C0.700195 18.2408 5.75938 23.2999 12.0002 23.2999Z" fill="black" stroke="white" stroke-width="1.5" stroke-miterlimit="10" stroke-linecap="round" stroke-linejoin="round"/>
<path d="M12.0003 23.2999C15.1483 23.2999 17.7003 18.2408 17.7003 12C17.7003 5.75913 15.1483 0.699951 12.0003 0.699951C8.85227 0.699951 6.30029 5.75913 6.30029 12C6.30029 18.2408 8.85227 23.2999 12.0003 23.2999Z" fill="black" stroke="white" stroke-width="1.5" stroke-miterlimit="10" stroke-linecap="round" stroke-linejoin="round"/>
<path d="M21.6004 6.30005H2.40039H21.6004Z" fill="black"/>
<path d="M21.6004 6.30005H2.40039" stroke="white" stroke-width="1.5" stroke-miterlimit="10" stroke-linecap="round" stroke-linejoin="round"/>
<path d="M21.6004 17.7H2.40039H21.6004Z" fill="black"/>
<path d="M21.6004 17.7H2.40039" stroke="white" stroke-width="1.5" stroke-miterlimit="10" stroke-linecap="round" stroke-linejoin="round"/>
<path d="M12 23.3V0.800049V23.3Z" fill="black"/>
<path d="M12 23.3V0.800049" stroke="white" stroke-width="1.5" stroke-miterlimit="10" stroke-linecap="round" stroke-linejoin="round"/>
</g>
<defs>
<clipPath id="clip0_1_791">
<rect width="24" height="24" fill="white"/>
</clipPath>
</defs>
</svg>
