<svg width="40" height="40" viewBox="0 0 40 40" fill="none" xmlns="http://www.w3.org/2000/svg">
<path d="M20 0.0799561C9 0.0799561 0 9.05996 0 20.12C0 30.12 7.32 38.42 16.88 39.92V25.92H11.8V20.12H16.88V15.7C16.88 10.68 19.86 7.91996 24.44 7.91996C26.62 7.91996 28.9 8.29996 28.9 8.29996V13.24H26.38C23.9 13.24 23.12 14.78 23.12 16.36V20.12H28.68L27.78 25.92H23.12V39.92C27.8329 39.1756 32.1244 36.771 35.2199 33.1401C38.3153 29.5092 40.0107 24.8912 40 20.12C40 9.05996 31 0.0799561 20 0.0799561Z" fill="black"/>
</svg>
