<svg width="18" height="21" viewBox="0 0 18 21" fill="none" xmlns="http://www.w3.org/2000/svg">
<path d="M15 12H14.32L12.32 14H14.23L16 16H2L3.78 14H5.83L3.83 12H3L0 15V19C0 20.1 0.89 21 1.99 21H16C17.1 21 18 20.11 18 19V15L15 12ZM14 6.95004L9.05 11.9L5.51 8.36004L10.46 3.41004L14 6.95004ZM9.76 1.29004L3.39 7.66004C3 8.05004 3 8.68004 3.39 9.07L8.34 14.02C8.73 14.41 9.36 14.41 9.75 14.02L16.11 7.66004C16.5 7.27004 16.5 6.64004 16.11 6.25004L11.16 1.30004C10.78 0.900041 10.15 0.900041 9.76 1.29004Z" fill="white"/>
</svg>
