<svg width="24" height="24" viewBox="0 0 24 24" fill="none" xmlns="http://www.w3.org/2000/svg">
<path d="M21.8434 5.70398L21.143 7.08518C21.0923 7.19089 21.0661 7.30666 21.0661 7.42388C21.0661 7.54109 21.0923 7.65668 21.143 7.76239C22.011 9.62469 22.2865 11.7085 21.9318 13.7323C21.5772 15.7561 20.6097 17.6224 19.1601 19.0788L19.0308 19.2081C18.4671 19.6925 17.7414 19.9466 16.9985 19.9197C16.6746 19.9233 16.3511 19.8977 16.0317 19.8435C15.9303 19.8283 15.8274 19.8093 15.7235 19.7865C15.0535 19.6477 14.4317 19.3354 13.9206 18.8805C13.4096 18.4257 13.0274 17.8444 12.8119 17.1952C12.7951 17.1492 12.781 17.1023 12.7699 17.0545C12.062 14.5622 13.752 11.7274 14.224 10.9359C14.7997 9.96687 15.4925 9.07227 16.2868 8.2724C16.342 8.2208 16.3883 8.16028 16.4237 8.09348C16.4577 8.0316 16.4821 7.96487 16.4959 7.89561C16.5113 7.84606 16.5145 7.79354 16.5053 7.74252C16.496 7.69148 16.4745 7.64346 16.4429 7.60242C16.4111 7.56139 16.37 7.52856 16.323 7.50674C16.2759 7.48492 16.2243 7.4747 16.1724 7.47701H16.0849C15.9396 7.50613 15.8068 7.5793 15.7043 7.6864C14.9043 8.48053 14.0095 9.17316 13.0402 9.74875C12.2447 10.2168 9.41326 11.91 6.92043 11.2022L6.76805 11.1566C6.11941 10.9379 5.53947 10.5528 5.08604 10.0401C4.63262 9.5273 4.32152 8.90473 4.18381 8.23431C4.16478 8.13918 4.14589 8.04787 4.13067 7.95655C4.07406 7.62984 4.04597 7.29878 4.04685 6.9672C4.02774 6.58466 4.08525 6.20223 4.21596 5.84221C4.34667 5.48219 4.54795 5.1519 4.80803 4.8707C5.74519 3.92946 6.86076 3.18447 8.08934 2.67943C9.31791 2.1744 10.635 1.91945 11.9633 1.92938C13.3956 1.92865 14.812 2.23063 16.1193 2.81581C16.2272 2.86829 16.3455 2.8957 16.4655 2.8957C16.5855 2.8957 16.704 2.86829 16.8119 2.81581L18.2238 2.09678C18.255 2.08113 18.2814 2.05751 18.3005 2.02841C18.3195 1.99932 18.3305 1.96578 18.3324 1.93106C18.3343 1.89633 18.3271 1.86157 18.3114 1.83054C18.2957 1.79952 18.2721 1.77317 18.243 1.75418C15.7321 0.22493 12.747 -0.329338 9.85422 0.196293C6.96147 0.721923 4.36227 2.29097 2.55013 4.60574C0.737999 6.92053 -0.160913 9.81992 0.0236965 12.7536C0.208306 15.6873 1.46376 18.4511 3.55179 20.5205C5.63981 22.59 8.41492 23.821 11.3507 23.98C14.2866 24.1391 17.1786 23.215 19.4781 21.3831C21.7775 19.5514 23.3242 16.9391 23.8248 14.0426C24.3253 11.146 23.745 8.16656 22.1935 5.66961C22.173 5.64023 22.145 5.61698 22.1125 5.60198C22.08 5.58698 22.0441 5.58084 22.0085 5.58433C21.9727 5.58782 21.9386 5.60065 21.9096 5.62167C21.8805 5.64269 21.8578 5.67119 21.8434 5.70398Z" fill="white"/>
</svg>
