<svg width="40" height="40" viewBox="0 0 40 40" fill="none" xmlns="http://www.w3.org/2000/svg">
<path d="M25 26.82C25.16 27 25.16 27.38 25 27.6C23.54 29 20.82 29.12 20 29.12C19.22 29.12 16.5 29 15.08 27.6C14.88 27.38 14.88 27 15.08 26.82C15.3 26.62 15.64 26.62 15.84 26.82C16.76 27.74 18.66 28 20 28C21.38 28 23.32 27.74 24.2 26.82C24.42 26.62 24.76 26.62 25 26.82ZM17.5 22.08C17.5 20.94 16.56 20 15.42 20C14.28 20 13.34 20.94 13.34 22.08C13.34 23.22 14.28 24.18 15.42 24.16C16.56 24.16 17.5 23.22 17.5 22.08ZM24.58 20C23.44 20 22.5 21 22.5 22.1C22.5 23.2 23.44 24.18 24.58 24.18C25.72 24.18 26.66 23.22 26.66 22.1C26.66 21 25.72 20 24.58 20ZM40 20C40 31 31 40 20 40C9 40 0 31 0 20C0 9 9 0 20 0C31 0 40 9 40 20ZM33.34 20C33.34 18.38 32 17.08 30.44 17.08C29.64 17.08 28.92 17.4 28.4 17.9C26.4 16.46 23.66 15.54 20.6 15.42L21.94 9.16L26.28 10.1C26.32 11.2 27.24 12.08 28.36 12.08C29.5 12.08 30.44 11.14 30.44 10C30.44 8.86 29.5 7.92 28.36 7.92C27.54 7.92 26.82 8.4 26.5 9.1L21.64 8.06C21.5 8 21.36 8.06 21.26 8.14C21.14 8.22 21.08 8.34 21.06 8.48L19.58 15.44C16.48 15.54 13.68 16.46 11.64 17.92C11.12 17.42 10.4 17.12 9.62 17.12C8 17.12 6.7 18.42 6.7 20C6.7 21.22 7.42 22.22 8.42 22.68C8.38 23 8.36 23.24 8.36 23.56C8.36 28 13.58 31.7 20 31.7C26.46 31.7 31.7 28.06 31.7 23.56C31.7 23.28 31.68 23 31.62 22.68C32.62 22.22 33.34 21.2 33.34 20Z" fill="black"/>
</svg>
