<svg width="20" height="20" viewBox="0 0 20 20" fill="none" xmlns="http://www.w3.org/2000/svg">
<path d="M9.51917 0C4.2619 0 0 4.2619 0 9.51917C0 14.7764 4.2619 19.0383 9.51917 19.0383C14.7764 19.0383 19.0383 14.7764 19.0383 9.51917C19.0383 4.2619 14.7764 0 9.51917 0ZM14.2044 11.4167C14.974 12.1863 14.974 13.4343 14.2044 14.2044C13.4348 14.974 12.1868 14.974 11.4167 14.2044L9.51917 12.3068L7.6216 14.2044C6.85201 14.974 5.60399 14.974 4.83394 14.2044C4.06435 13.4348 4.06435 12.1868 4.83394 11.4167L6.73151 9.51917L4.83394 7.6216C4.06435 6.85201 4.06435 5.60399 4.83394 4.83394C5.60354 4.06435 6.85156 4.06435 7.6216 4.83394L9.51917 6.73151L11.4167 4.83394C12.1863 4.06435 13.4343 4.06435 14.2044 4.83394C14.974 5.60354 14.974 6.85156 14.2044 7.6216L12.3064 9.51917L14.2044 11.4167Z" fill="white"/>
</svg>
