<svg width="596" height="385" viewBox="0 0 596 385" fill="none" xmlns="http://www.w3.org/2000/svg">
<g clip-path="url(#clip0_8_6288)">
<path d="M596 380.648H0V385H596V380.648Z" fill="#85848B"/>
<path d="M472.187 303.812C472.187 307.159 452.659 316.918 429.462 316.918C406.266 316.918 388.191 307.159 388.191 303.812C388.191 300.465 406.992 301.543 430.212 301.543C453.431 301.543 472.187 300.459 472.187 303.812Z" fill="#504F60"/>
<path opacity="0.2" d="M472.187 303.812C472.187 307.159 452.659 316.918 429.462 316.918C406.266 316.918 388.191 307.159 388.191 303.812" fill="black"/>
<path d="M238.581 242.39C242.345 242.872 246.252 243.179 249.858 242.01C250.426 241.834 251.05 241.442 250.994 240.875C250.953 240.669 250.866 240.475 250.738 240.308C249.379 238.271 248.237 236.098 247.331 233.823C247.295 233.704 247.221 233.601 247.121 233.528C247.004 233.485 246.875 233.485 246.758 233.528C245.094 233.965 243.657 235.037 242.005 235.497C241.162 235.728 240.283 235.793 239.415 235.69C238.666 235.604 237.644 234.986 236.962 235.065C237.348 237.545 238.291 239.86 238.581 242.39Z" fill="#40E2C3"/>
<path d="M309.783 236.11C312.264 234.408 314.837 232.621 316.302 229.994C316.406 229.837 316.467 229.654 316.478 229.466C316.453 229.281 316.38 229.105 316.268 228.955C314.872 226.739 313.075 224.801 310.97 223.242C309.871 224.018 308.878 224.933 308.017 225.965C307.392 226.624 305.666 227.668 305.649 228.672C305.649 229.239 306.308 229.897 306.614 230.374C307.029 230.987 307.421 231.611 307.795 232.246C308.011 232.558 309.982 235.985 309.783 236.11Z" fill="#40E2C3"/>
<path d="M253.339 249.987C253.383 250.571 253.223 251.153 252.885 251.632C252.62 251.899 252.291 252.094 251.931 252.2C246.667 254.083 240.574 251.734 235.321 253.59C234.242 253.97 233.22 254.52 232.136 254.883C230.843 255.272 229.509 255.508 228.161 255.587C226.304 255.763 224.436 255.876 222.573 255.927C221.158 256.027 219.736 255.903 218.36 255.558C217.671 255.382 217.028 255.064 216.471 254.623C215.915 254.182 215.457 253.629 215.129 253C214.843 252.436 214.786 251.783 214.97 251.178C215.052 250.971 215.169 250.779 215.316 250.611C215.672 250.212 216.09 249.873 216.554 249.607L218.49 248.359C219.398 247.717 220.385 247.195 221.426 246.804C222.193 246.554 223.005 246.447 223.783 246.237C226.503 245.442 228.581 243.286 230.512 241.216L233.146 238.407C233.393 238.098 233.705 237.848 234.061 237.675C234.426 237.554 234.814 237.517 235.196 237.568C237.756 237.75 240.227 238.578 242.379 239.973C242.93 240.385 243.524 240.736 244.151 241.017C245.696 241.618 247.678 241.165 249.103 240.404C249.779 240.041 249.631 239.837 249.915 239.19C250.199 238.543 250.892 238.129 251.493 238.719C251.675 238.923 251.804 239.169 251.868 239.434C252.436 241.306 252.22 243.321 252.22 245.284C252.204 245.59 252.242 245.898 252.334 246.191C252.479 246.487 252.652 246.768 252.851 247.031C252.891 247.101 252.927 247.173 252.958 247.247C253.306 248.116 253.436 249.056 253.339 249.987Z" fill="#514E7F"/>
<path d="M253.339 249.987C253.383 250.571 253.223 251.153 252.885 251.632C252.62 251.899 252.291 252.094 251.931 252.2C246.667 254.083 240.574 251.734 235.321 253.59C234.242 253.97 233.22 254.52 232.136 254.883C230.843 255.271 229.509 255.508 228.161 255.587C226.304 255.762 224.436 255.876 222.573 255.927C221.158 256.027 219.736 255.903 218.36 255.558C217.671 255.382 217.028 255.063 216.471 254.623C215.915 254.182 215.457 253.629 215.129 252.999C214.843 252.435 214.786 251.783 214.97 251.178C215.052 250.971 215.169 250.779 215.316 250.611C215.623 251.252 215.844 252.103 216.037 252.409C216.298 252.863 216.653 253.257 217.078 253.563C217.503 253.869 217.988 254.081 218.502 254.185C219.27 254.232 220.041 254.134 220.773 253.896C225.543 252.716 230.614 252.699 235.196 250.912C236.769 250.293 238.268 249.471 239.921 249.096C241.573 248.722 243.328 248.824 245.031 248.682C247.723 248.466 250.329 247.655 252.981 247.229C253.324 248.106 253.446 249.052 253.339 249.987Z" fill="#464353"/>
<path d="M321.838 235.764C321.588 237.761 320.322 239.48 318.931 240.938C317.54 242.396 315.967 243.706 314.859 245.386C313.497 247.468 312.883 250.049 311.112 251.808C310.431 252.448 309.667 252.992 308.84 253.425C307.914 253.971 306.934 254.422 305.916 254.77C303.27 255.615 300.419 255.422 297.654 255.218C296.756 255.209 295.867 255.038 295.03 254.713C294.649 254.52 294.285 254.296 293.94 254.044C293.247 253.617 292.663 253.034 292.236 252.342C292.027 251.965 291.968 251.523 292.072 251.105C292.23 250.644 292.501 250.23 292.861 249.902C293.483 249.255 294.151 248.654 294.86 248.103C295.832 247.477 296.708 246.712 297.461 245.834C297.922 245.14 298.262 244.373 298.466 243.565C298.868 242.149 299.113 240.694 299.198 239.224C299.195 238.248 299.296 237.274 299.499 236.32C299.919 234.822 301.032 233.483 300.907 231.934C300.857 231.712 300.877 231.48 300.964 231.27C301.096 231.106 301.281 230.992 301.487 230.947C302.354 230.601 303.269 230.389 304.201 230.317C304.668 230.285 305.137 230.357 305.573 230.527C306.009 230.698 306.401 230.963 306.722 231.304C307.108 231.769 307.364 232.439 307.932 232.62C308.213 232.697 308.508 232.709 308.795 232.654C310.192 232.513 311.668 232.337 312.77 231.435C313.279 230.978 313.688 230.422 313.971 229.8C314.255 229.178 314.406 228.504 314.416 227.821C314.416 227.304 314.184 226.765 314.984 226.686C315.586 226.606 316.063 227.253 316.37 227.65C317.477 229.131 318.613 230.68 319.027 232.484C319.189 232.422 319.36 232.389 319.533 232.388C319.887 232.385 320.237 232.467 320.552 232.628C320.867 232.789 321.139 233.024 321.344 233.313C321.796 234.044 321.972 234.914 321.838 235.764Z" fill="#514E7F"/>
<path d="M321.838 235.764C321.588 237.761 320.322 239.48 318.931 240.938C317.54 242.396 315.967 243.707 314.859 245.386C313.497 247.468 312.883 250.05 311.112 251.808C310.431 252.448 309.667 252.992 308.84 253.425C307.914 253.972 306.934 254.422 305.916 254.77C303.27 255.615 300.419 255.422 297.654 255.218C296.756 255.21 295.867 255.039 295.03 254.713C294.649 254.52 294.285 254.296 293.94 254.044C293.247 253.617 292.663 253.034 292.236 252.342C292.769 252.086 293.349 251.947 293.94 251.933C295.166 252.001 296.064 253.159 297.239 253.516C298.914 254.021 300.584 252.841 302.282 252.438C303.389 252.177 304.553 252.245 305.649 251.871C306.562 251.518 307.406 251.007 308.142 250.362C309.15 249.641 310.047 248.777 310.805 247.797C311.434 246.817 311.958 245.773 312.366 244.682C313.263 242.593 314.319 240.575 315.524 238.646C315.702 238.34 315.917 238.058 316.165 237.806C316.432 237.562 316.733 237.392 317.034 237.176C318.17 236.32 318.641 234.907 319.039 233.523C319.146 233.102 319.297 232.693 319.487 232.303C319.841 232.3 320.191 232.382 320.507 232.543C320.822 232.704 321.094 232.939 321.299 233.228C321.787 233.977 321.98 234.881 321.838 235.764Z" fill="#464353"/>
<path d="M202.767 58.8743C204.18 59.9325 205.343 61.2883 206.174 62.8457C206.969 64.4003 211.551 76.4622 211.284 78.2153C212.778 76.7118 218.666 76.4679 220.177 74.9644C220.807 74.3346 224.208 71.1915 224.719 70.4596C225.231 69.7277 229.024 68.1902 229.438 67.4186C230.988 64.6443 218.445 54.1312 220.052 51.3909C220.141 51.265 220.186 51.1137 220.182 50.9597C220.146 50.8304 220.073 50.7142 219.972 50.625C218.944 49.5754 217.582 48.9229 216.344 48.1456C215.106 47.3684 213.913 46.2847 213.578 44.855C212.398 45.3979 211.314 46.13 210.37 47.0223C208.068 48.9929 205.806 51.0032 203.584 53.0532C202.715 53.8589 201.035 54.9312 200.631 56.0829C200.154 57.3197 201.937 58.1991 202.767 58.8743Z" fill="#A1616A"/>
<path d="M223.073 54.4092C221.148 55.7013 219.35 57.1716 217.701 58.8005C216.145 60.338 214.669 62.1195 214.294 64.2698C214.135 65.1151 214.158 65.9718 214.027 66.8285C213.459 70.5447 210.245 73.268 208.825 76.7459C208.414 77.8193 208.112 78.9312 207.923 80.0649C207.524 82.214 207.305 84.3926 207.27 86.5781C207.236 88.6943 209.314 90.1524 210.075 92.1268C210.836 94.1012 211.04 96.1323 211.426 98.1578C212.153 101.982 213.487 105.67 214.833 109.335C217.633 117.062 226.707 138.423 229.506 146.156C238.087 144.006 260.925 139.064 268.523 134.531C271.056 133.022 250.948 115.995 253.657 114.821C253.812 114.797 253.959 114.737 254.087 114.646C254.214 114.556 254.319 114.437 254.393 114.299C254.467 114.161 254.508 114.007 254.512 113.851C254.516 113.694 254.484 113.539 254.418 113.397C251.709 101.562 243.237 91.8375 239.393 80.3145C238.058 76.3147 235.662 72.8992 233.845 69.0979C232.198 65.6541 231.318 61.8472 229.347 58.5735C228.976 57.8991 228.49 57.2944 227.911 56.7864C227.419 56.4099 226.888 56.0884 226.326 55.8276C225.202 55.2829 224.157 54.9595 223.073 54.4092Z" fill="#514E7F"/>
<path d="M203.221 57.5296C210.638 57.5296 216.65 51.5222 216.65 44.1117C216.65 36.7012 210.638 30.6938 203.221 30.6938C195.804 30.6938 189.791 36.7012 189.791 44.1117C189.791 51.5222 195.804 57.5296 203.221 57.5296Z" fill="#A1616A"/>
<path d="M216.883 50.4151C217.552 49.7983 218.393 49.3987 219.294 49.2691C220.196 49.1394 221.115 49.2858 221.931 49.6889C222.84 50.1598 223.635 51.1129 223.43 52.1115L230.091 52.2136C231.151 52.1846 232.211 52.2817 233.249 52.5029C234.292 52.73 235.224 53.3139 235.883 54.1539C235.963 54.2617 236.054 54.3922 236.19 54.4093C236.301 54.411 236.409 54.375 236.497 54.3071C237.521 53.7937 238.676 53.5962 239.813 53.7398C243.413 53.9724 246.741 55.7709 249.563 58.0176C250.072 58.3672 250.467 58.8584 250.698 59.4303C250.931 60.1849 250.653 61.1324 251.266 61.6714C251.266 67.9122 253.413 73.7446 254.844 79.8267C255.099 80.9103 256.138 81.8691 256.86 82.7202C257.751 83.6636 258.478 84.7489 259.012 85.9314C260.227 89.0859 258.552 92.7963 259.733 95.9622C260.233 97.3011 261.198 98.4018 262.004 99.5649C263.067 100.908 263.739 102.518 263.946 104.217C263.997 104.977 263.901 105.743 263.946 106.487C264.022 107.509 264.213 108.519 264.514 109.499C264.999 111.33 265.506 113.159 266.036 114.986C266.899 117.936 268.023 121.119 270.67 122.69C264.281 123.774 257.547 124.835 251.459 122.616C250.61 122.327 249.804 121.924 249.063 121.419C246.865 119.853 245.804 117.175 244.855 114.645C243.799 111.808 242.726 108.921 242.51 105.902C242.512 104.942 242.376 103.987 242.107 103.065C241.488 101.42 239.836 100.427 238.336 99.5138C236.644 98.587 235.11 97.3956 233.794 95.9849C233.141 95.2743 232.64 94.4374 232.324 93.5259C232.007 92.6145 231.881 91.6478 231.954 90.6858C232.067 89.7497 232.436 88.8476 232.471 87.9058C232.505 86.964 232.084 85.886 231.182 85.6364C226.531 84.2293 224.311 78.726 223.277 73.9829C222.831 71.5315 222.631 69.0417 222.681 66.5506L222.618 61.7111C221.977 61.1277 221.46 60.4199 221.101 59.6309C220.742 58.8418 220.547 57.9879 220.529 57.1212C220.59 56.6155 220.581 56.1037 220.5 55.6007C220.276 54.9858 219.91 54.4321 219.433 53.9837C218.406 52.9309 217.546 51.7274 216.883 50.4151Z" fill="#464353"/>
<path d="M202.579 65.7563C202.426 67.2541 202.767 68.7917 202.432 70.2611C202.301 70.8285 202.074 71.3958 201.909 71.9234C201.406 74.0384 201.623 76.2609 202.528 78.2381C203.431 80.1959 204.513 82.0666 205.759 83.8265C206.181 84.4273 206.528 85.0769 206.793 85.7612C207.007 86.4797 207.141 87.22 207.19 87.9682C207.519 90.9726 208.046 93.9521 208.769 96.887C209.405 99.4287 216.628 121.158 218.308 123.172C218.613 123.618 219.076 123.933 219.603 124.052C219.983 124.066 220.361 123.988 220.705 123.825L224.112 122.52C224.402 122.431 224.67 122.285 224.901 122.089C225.22 121.716 225.394 121.24 225.39 120.75C225.634 117.981 218.394 96.0984 217.474 93.4829C214.691 85.5853 210.989 77.9714 209.178 69.7959C208.672 67.5265 208.405 64.0316 206.741 62.2217C206.054 61.4728 206.287 61.7905 205.464 62.182C205.048 62.3624 204.645 62.5729 204.26 62.8118C203.778 63.1465 203.377 63.5846 203.086 64.0941C202.795 64.6035 202.622 65.1714 202.579 65.7563Z" fill="#464353"/>
<path d="M212.92 80.7398C213.834 85.568 214.776 90.3848 215.713 95.213L229.046 91.7238C229.154 90.3281 228.41 89.0345 227.911 87.7523C226.696 84.7056 226.667 81.3128 225.685 78.1811C224.941 75.7982 223.646 73.6082 222.948 71.2083C222.545 69.8126 222.34 68.3715 221.943 66.9588C221.516 65.5715 220.993 64.2159 220.375 62.9022C219.627 60.997 218.651 59.1892 217.468 57.5181C215.765 58.1535 213.947 58.8911 212.976 60.4286C212.478 61.2949 212.194 62.2674 212.147 63.2654C211.915 66.2553 212.999 69.2623 212.641 72.2352C212.273 75.0664 212.367 77.9387 212.92 80.7398Z" fill="#240051"/>
<path d="M229.268 144.964C230.017 147.801 228.933 150.785 228.047 153.594C226.713 157.824 225.804 162.176 225.333 166.586C225.275 167.708 225.049 168.816 224.663 169.871C224.242 170.819 223.527 171.619 223.039 172.521C221.698 174.892 221.733 177.786 222.022 180.498C222.215 182.285 222.505 184.066 222.863 185.825C223.3 187.975 223.839 190.222 223.209 192.321C224.265 192.089 224.981 193.456 224.912 194.528C224.844 195.601 224.498 196.798 225.015 197.723C226.321 198.199 226.332 199.992 226.292 201.382C226.314 203.792 226.619 206.191 227.201 208.531C229.177 218.024 231.274 227.492 233.493 236.932C238.291 238.419 243.896 239.968 248.472 237.908C249.324 237.528 250.176 236.921 250.369 236.002C250.419 235.506 250.357 235.006 250.187 234.538L248.018 226.652C247.49 224.745 246.962 222.777 247.24 220.819C247.45 219.361 248.086 217.79 247.371 216.502C247.127 216.059 246.74 215.713 246.457 215.293C245.321 213.631 245.917 211.407 246.008 209.393C246.043 208.941 246.013 208.486 245.917 208.043C245.762 207.525 245.544 207.028 245.27 206.562C243.477 203.085 242.616 199.203 242.771 195.294C242.839 194.795 242.77 194.288 242.573 193.825C242.435 193.634 242.311 193.433 242.203 193.223C242.119 192.859 242.161 192.477 242.323 192.14C241.672 191.646 241.084 191.075 240.574 190.438C240.889 190.242 241.155 189.978 241.353 189.664C241.55 189.35 241.674 188.996 241.714 188.628C241.755 188.259 241.711 187.887 241.586 187.538C241.461 187.189 241.259 186.873 240.994 186.614C241.225 186.567 241.44 186.457 241.612 186.296C241.785 186.136 241.91 185.93 241.973 185.702C242.036 185.475 242.035 185.235 241.969 185.008C241.903 184.781 241.776 184.577 241.601 184.418C241.323 184.225 240.954 184.14 240.755 183.851C240.449 183.431 240.699 182.847 240.948 182.398L242.272 180.01C243.26 178.234 243.481 176.038 244.543 174.336C246.065 171.857 247.059 169.094 248.041 166.359L251.862 155.823L254.435 158.053C255.292 158.707 256.01 159.525 256.547 160.459C256.913 161.382 257.144 162.352 257.234 163.341C258.177 169.06 261.777 174.019 263.111 179.652C263.407 180.906 263.606 182.222 264.327 183.295C264.585 183.624 264.816 183.973 265.019 184.339C265.207 184.896 265.305 185.481 265.309 186.069C265.428 187.221 265.794 188.335 266.382 189.333C266.97 190.332 267.766 191.192 268.716 191.856C269.982 192.724 271.555 193.32 272.242 194.693C272.38 195.118 272.571 195.524 272.81 195.901C273.424 196.639 274.747 196.724 275.008 197.649C275.156 198.165 274.883 198.783 275.173 199.237C275.337 199.447 275.555 199.61 275.803 199.708L279.5 201.552C283.633 203.617 285.746 208.36 288.795 211.816C289.848 212.941 290.781 214.173 291.578 215.492C292.895 217.846 293.503 220.802 295.729 222.3C296.327 222.61 296.872 223.014 297.341 223.497C298.04 224.416 297.784 225.704 297.847 226.862C297.909 228.019 298.795 229.398 299.897 229.046C299.511 230.448 299.511 231.928 299.897 233.33C304.733 233.081 309.345 231.215 312.991 228.031C314.07 227.089 315.109 225.886 315.121 224.456C315.137 224.209 315.082 223.963 314.962 223.747C314.743 223.468 314.455 223.251 314.127 223.117C310.669 221.245 309.629 216.905 307.881 213.381C306.353 210.272 304.093 207.594 302.202 204.707C298.091 198.494 295.286 190.977 289.068 186.875C287.699 185.973 286.109 185.173 285.422 183.681C285.042 182.847 284.996 181.893 284.695 181.031C284.394 180.169 283.673 179.329 282.753 179.329C283.264 178.081 283.162 176.56 283.196 175.21C283.231 174.611 283.162 174.01 282.992 173.434C282.756 172.815 282.449 172.225 282.078 171.675C280.455 168.931 279.644 165.784 279.738 162.598C279.783 160.958 280.073 159.267 279.579 157.701C279.329 156.913 278.892 156.192 278.591 155.432C278.137 154.054 277.898 152.616 277.881 151.166L277.54 145.713C277.489 143.897 277.253 142.092 276.836 140.323C275.701 136.091 274.565 118.361 270.675 116.364C266.785 114.367 260.102 128.012 255.724 128.279C253.787 128.359 251.873 128.728 250.045 129.374C247.132 130.463 244.691 132.494 242.311 134.48L234.259 141.237C232.556 142.638 231.147 143.977 229.268 144.964Z" fill="#464353"/>
<path d="M190.62 29.2128C192.392 26.7959 195.436 25.5137 198.434 25.4059C201.432 25.2981 204.385 26.2399 207.071 27.5731C207.864 28.0236 208.711 28.3706 209.592 28.6057C211.012 28.8951 212.59 28.5093 213.874 29.1731C215.577 30.0752 215.907 32.3729 215.759 34.2793C215.611 36.1856 215.254 38.3018 216.27 39.9528C216.631 40.4236 216.959 40.9184 217.252 41.4336C217.69 42.4151 217.434 43.5498 217.173 44.5881C216.508 44.0207 216.134 43.164 215.543 42.5059C214.953 41.8477 213.925 41.4052 213.192 41.8988C212.46 42.3924 212.471 43.2888 212.431 44.0945C212.392 44.9001 212.187 45.8646 211.426 46.1256C211.108 46.1978 210.776 46.1732 210.472 46.0549C210.169 45.9366 209.908 45.73 209.723 45.4618C208.422 43.8732 208.945 41.3371 207.656 39.7372C206.923 38.8294 205.702 38.3869 205.027 37.4337C204.493 36.6848 204.357 35.7317 203.891 34.926C203.425 34.1204 202.341 33.5304 201.62 34.0864C201.373 34.3213 201.168 34.5955 201.012 34.8977C200.562 35.5412 199.908 36.0145 199.156 36.241C198.404 36.4675 197.597 36.434 196.867 36.1459C196.308 35.8033 195.704 35.5417 195.072 35.3686C194.659 35.3479 194.247 35.4432 193.885 35.6437C193.523 35.8442 193.224 36.142 193.022 36.5033C192.615 37.2252 192.418 38.0468 192.454 38.8748C192.454 40.0095 192.659 41.218 192.012 42.1257C191.765 42.4675 191.457 42.76 191.103 42.9881C190.155 43.5952 188.832 44.0037 187.957 43.3115C187.661 43.0357 187.44 42.6883 187.317 42.3028C187.194 41.9173 187.172 41.5066 187.253 41.1102C187.423 40.3205 187.647 39.5433 187.923 38.784C188.423 37.0252 187.77 35.0452 188.315 33.3885C188.886 31.8965 189.662 30.4912 190.62 29.2128Z" fill="#464353"/>
<path d="M197.815 69.2399C197.73 69.6534 197.773 70.0831 197.94 70.4711C198.109 70.7353 198.338 70.9552 198.61 71.1122C200.519 72.3008 202.691 73.0039 204.936 73.1603C205.241 73.1656 205.541 73.2434 205.81 73.3873C206.344 73.739 206.378 74.522 206.179 75.1461C205.914 75.7348 205.777 76.3728 205.776 77.0183C205.941 78.2041 207.349 78.7204 208.536 78.8963C210.2 79.1062 212.022 78.9984 213.34 77.9601C214.232 77.1469 214.912 76.1283 215.322 74.9929C218.581 67.5095 219.722 59.2375 223.022 51.7768C223.272 51.2897 223.439 50.7643 223.516 50.2222C223.55 49.9509 223.512 49.6752 223.404 49.4238C223.296 49.1724 223.123 48.9544 222.902 48.7925C222.289 48.4124 221.335 48.628 220.921 48.0323C220.716 47.7316 220.739 47.3231 220.557 47.0054C220.177 46.3302 219.177 46.438 218.496 46.0465C217.962 45.7629 217.593 45.1785 216.997 45.065C216.704 45.0485 216.411 45.1004 216.142 45.2166C215.873 45.3328 215.635 45.5101 215.447 45.7345C213.51 47.5387 212.494 50.0974 211.415 52.5143C209.767 56.2191 207.839 59.7925 205.645 63.2033C205.901 62.8061 204.419 59.7992 203.84 59.6687C202.823 59.4644 201.523 61.2459 200.972 61.9097C199.244 64.0035 198.148 66.5463 197.815 69.2399Z" fill="#240051"/>
<path opacity="0.1" d="M218.445 46.5742C218.037 46.581 217.636 46.6794 217.271 46.8621C216.906 47.0447 216.588 47.307 216.338 47.6295C215.73 48.4181 215.611 49.462 215.458 50.4663C214.941 53.6478 213.805 56.6972 212.113 59.4418" fill="black"/>
<path opacity="0.1" d="M221.341 48.8379C220.778 48.8504 220.228 49.0093 219.745 49.2988C219.262 49.5882 218.863 49.9984 218.587 50.4889C218.211 51.3813 217.977 52.327 217.894 53.2916C217.407 55.4303 216.468 57.4401 215.14 59.1864" fill="black"/>
<path d="M356.295 159.755V152.709C356.294 147.521 354.23 142.547 350.558 138.88C346.887 135.212 341.908 133.152 336.716 133.152H58.1929C53.0011 133.152 48.0219 135.212 44.3502 138.88C40.6785 142.547 38.6151 147.521 38.6136 152.709V165.701L356.295 159.755Z" fill="#33323D"/>
<path d="M135.675 124.892C135.675 124.892 134.881 174.172 143.625 190.387C152.37 206.602 156.118 277.141 156.118 277.141C156.118 277.141 247.791 286.615 311.674 265.794C375.556 244.972 511.487 236.456 511.487 236.456L488.581 82.1982C488.581 82.1982 375.415 74.9475 311.038 105.624C246.661 136.301 135.675 124.892 135.675 124.892Z" fill="#8DD070"/>
<path opacity="0.1" d="M135.675 124.892C135.675 124.892 134.881 174.172 143.625 190.387C152.37 206.602 156.118 277.141 156.118 277.141C156.118 277.141 247.791 286.615 311.674 265.794C375.556 244.972 511.487 236.456 511.487 236.456L488.581 82.1982C488.581 82.1982 375.415 74.9475 311.038 105.624C246.661 136.301 135.675 124.892 135.675 124.892Z" fill="black"/>
<path d="M155.965 142.893C155.965 142.893 153.097 183.555 160.292 196.548C167.486 209.54 167.821 267.541 167.821 267.541C167.821 267.541 250.324 271.365 309.011 251.405C367.697 231.446 491.022 218.499 491.022 218.499L477.008 92.3478C477.008 92.3478 374.966 91.2983 315.41 119.394C255.854 147.489 155.965 142.893 155.965 142.893Z" fill="#8DD070"/>
<path opacity="0.1" d="M314.504 228.308C326.243 226.847 333.217 205.271 330.081 180.116C326.945 154.961 314.887 135.753 303.148 137.214C291.409 138.675 284.435 160.251 287.571 185.406C290.707 210.561 302.765 229.769 314.504 228.308Z" fill="black"/>
<path opacity="0.2" d="M426.538 7.05225C426.538 7.05225 316.597 34.8525 264.753 83.7867C212.908 132.721 103.768 155.892 103.768 155.892C103.768 155.892 118.146 203.033 131.445 215.787C144.744 228.541 169.968 294.536 169.968 294.536C169.968 294.536 260.125 275.439 314.524 236.019C368.924 196.599 495.707 146.814 495.707 146.814L426.538 7.05225Z" fill="black"/>
<path d="M102.116 148.834C102.116 148.834 116.488 195.981 129.776 208.735C143.063 221.489 168.298 287.478 168.298 287.478C168.298 287.478 258.467 268.386 312.872 228.967C367.277 189.547 494.049 139.779 494.049 139.779L424.88 0C424.88 0 314.945 27.8003 263.1 76.7345C211.256 125.669 102.116 148.834 102.116 148.834Z" fill="#8DD070"/>
<path opacity="0.1" d="M102.116 148.834C102.116 148.834 116.488 195.981 129.776 208.735C143.063 221.489 168.298 287.478 168.298 287.478C168.298 287.478 258.467 268.386 312.872 228.967C367.277 189.547 494.049 139.779 494.049 139.779L424.88 0C424.88 0 314.945 27.8003 263.1 76.7345C211.256 125.669 102.116 148.834 102.116 148.834Z" fill="black"/>
<path d="M126.936 159.749C126.936 159.749 136.698 199.334 147.538 209.489C158.378 219.645 176.498 274.735 176.498 274.735C176.498 274.735 256.189 253.073 305.916 216.082C355.642 179.09 469.052 129.01 469.052 129.01L416.975 13.2021C416.975 13.2021 319.538 43.4818 271.482 88.4842C223.425 133.487 126.936 159.749 126.936 159.749Z" fill="#8DD070"/>
<path opacity="0.1" d="M304.077 192.434C314.801 187.444 314.812 164.771 304.102 141.791C293.391 118.811 276.016 104.227 265.292 109.216C254.568 114.206 254.557 136.879 265.268 159.859C275.978 182.839 293.354 197.423 304.077 192.434Z" fill="black"/>
<path opacity="0.1" d="M363.813 166.671V362.408C363.813 364.631 363.375 366.832 362.523 368.886C361.672 370.939 360.424 372.805 358.85 374.377C357.277 375.949 355.409 377.195 353.353 378.045C351.297 378.895 349.094 379.333 346.869 379.332H55.5638C51.0723 379.33 46.7653 377.547 43.5898 374.373C40.4144 371.199 38.6306 366.895 38.6306 362.408V146.938C46.9779 150.036 46.9779 150.036 55.5638 149.775H346.869C351.357 149.775 355.662 151.554 358.838 154.722C362.015 157.889 363.804 162.187 363.813 166.671Z" fill="black"/>
<path d="M363.813 169.162V364.899C363.812 369.388 362.026 373.693 358.848 376.866C355.671 380.04 351.362 381.823 346.869 381.823H55.5638C51.0723 381.821 46.7653 380.038 43.5898 376.864C40.4144 373.69 38.6306 369.386 38.6306 364.899V149.424C46.9779 152.516 46.9779 152.516 55.5638 152.261H346.869C351.358 152.261 355.664 154.04 358.84 157.209C362.017 160.378 363.806 164.677 363.813 169.162Z" fill="#504F60"/>
<path opacity="0.1" d="M362.984 241.528V304.124H302.225C293.99 304.013 286.13 300.667 280.346 294.809C274.561 288.952 271.318 281.054 271.318 272.826C271.318 264.597 274.561 256.7 280.346 250.842C286.13 244.985 293.99 241.639 302.225 241.528H362.984Z" fill="black"/>
<path d="M363.813 239.86V302.467H303.054C294.819 302.356 286.959 299.01 281.175 293.153C275.391 287.295 272.148 279.398 272.148 271.169C272.148 262.941 275.391 255.043 281.175 249.186C286.959 243.328 294.819 239.982 303.054 239.871L363.813 239.86Z" fill="#33323D"/>
<path opacity="0.1" d="M305.967 285.033C312.713 285.033 318.181 279.569 318.181 272.829C318.181 266.089 312.713 260.625 305.967 260.625C299.221 260.625 293.753 266.089 293.753 272.829C293.753 279.569 299.221 285.033 305.967 285.033Z" fill="black"/>
<path d="M306.796 283.376C313.542 283.376 319.01 277.912 319.01 271.172C319.01 264.432 313.542 258.968 306.796 258.968C300.05 258.968 294.582 264.432 294.582 271.172C294.582 277.912 300.05 283.376 306.796 283.376Z" fill="#240051"/>
<path d="M469.279 239.321C469.762 244.546 465.804 249.618 466.957 254.736C467.207 255.831 467.678 256.863 467.848 257.969C468.325 261.011 466.514 263.887 464.782 266.429L449.905 288.238C449.309 289.197 448.595 290.077 447.781 290.859C444.942 293.389 440.671 293.128 436.935 293.883C434.308 294.416 431.828 295.511 429.666 297.094C429.576 297.171 429.519 297.28 429.506 297.398C429.493 297.517 429.526 297.635 429.598 297.73C430.216 298.57 431.034 299.242 431.978 299.685C432.923 300.128 433.963 300.328 435.004 300.266C435.396 300.782 435.004 301.537 434.436 301.905C433.636 302.473 432.54 302.609 432.381 303.959C432.324 304.43 432.42 304.907 432.653 305.321C433.253 306.238 434.185 306.887 435.254 307.131C440.404 308.702 445.969 305.939 449.825 302.178C453.681 298.416 456.446 293.667 460.228 289.838C462.323 287.722 464.703 285.906 466.86 283.852C471.165 279.756 474.509 274.775 477.74 269.787C478.711 268.284 479.688 266.741 480.097 264.999C480.506 263.257 480.313 261.498 480.773 259.813C481.375 257.601 482.993 255.842 484.339 253.987C486.979 250.356 488.74 245.913 488.393 241.443C488.047 236.972 485.27 232.552 481.045 231.032C479.736 230.506 478.292 230.419 476.928 230.782C475.196 231.315 473.919 232.745 472.738 234.112L469.898 237.375C469.19 238.09 468.631 238.939 468.252 239.871C468.07 240.339 468.027 240.85 468.127 241.342C468.228 241.834 468.468 242.286 468.819 242.645" fill="#FBBEBE"/>
<path opacity="0.05" d="M469.279 239.321C469.762 244.546 465.804 249.618 466.957 254.736C467.207 255.831 467.678 256.863 467.848 257.969C468.325 261.011 466.514 263.887 464.782 266.429L449.905 288.238C449.309 289.197 448.595 290.077 447.781 290.859C444.942 293.389 440.671 293.128 436.935 293.883C434.308 294.416 431.828 295.511 429.666 297.094C429.576 297.171 429.519 297.28 429.506 297.398C429.493 297.517 429.526 297.635 429.598 297.73C430.216 298.57 431.034 299.242 431.978 299.685C432.923 300.128 433.963 300.328 435.004 300.266C435.396 300.782 435.004 301.537 434.436 301.905C433.636 302.473 432.54 302.609 432.381 303.959C432.324 304.43 432.42 304.907 432.653 305.321C433.253 306.238 434.185 306.887 435.254 307.131C440.404 308.702 445.969 305.939 449.825 302.178C453.681 298.416 456.446 293.667 460.228 289.838C462.323 287.722 464.703 285.906 466.86 283.852C471.165 279.756 474.509 274.775 477.74 269.787C478.711 268.284 479.688 266.741 480.097 264.999C480.506 263.257 480.313 261.498 480.773 259.813C481.375 257.601 482.993 255.842 484.339 253.987C486.979 250.356 488.74 245.913 488.393 241.443C488.047 236.972 485.27 232.552 481.045 231.032C479.736 230.506 478.292 230.419 476.928 230.782C475.196 231.315 473.919 232.745 472.738 234.112L469.898 237.375C469.19 238.09 468.631 238.939 468.252 239.871C468.07 240.339 468.027 240.85 468.127 241.342C468.228 241.834 468.468 242.286 468.819 242.645" fill="black"/>
<path d="M480.54 373.84C477.292 375.82 473.243 375.94 469.467 375.48C468.859 375.406 468.138 375.361 467.763 375.832C467.195 376.513 467.866 377.534 468.558 378.061C470.786 379.732 473.402 380.808 476.162 381.188C478.626 381.537 481.112 381.702 483.601 381.681C490.415 381.8 497.229 381.914 503.935 380.938C504.332 380.908 504.719 380.796 505.071 380.609C505.503 380.306 505.804 379.849 505.911 379.332C506.371 377.585 505.485 375.713 504.145 374.499C502.805 373.284 501.085 372.609 499.404 371.957L493.498 369.659C492.113 369.12 489.892 367.69 488.387 367.804C485.56 368.008 482.885 372.467 480.54 373.84Z" fill="#3F3D56"/>
<path opacity="0.05" d="M480.54 373.84C477.292 375.82 473.243 375.94 469.467 375.48C468.859 375.406 468.138 375.361 467.763 375.832C467.195 376.513 467.866 377.534 468.558 378.061C470.786 379.732 473.402 380.808 476.162 381.188C478.626 381.537 481.112 381.702 483.601 381.681C490.415 381.8 497.229 381.914 503.935 380.938C504.332 380.908 504.719 380.796 505.071 380.609C505.503 380.306 505.804 379.849 505.911 379.332C506.371 377.585 505.485 375.713 504.145 374.499C502.805 373.284 501.085 372.609 499.404 371.957L493.498 369.659C492.113 369.12 489.892 367.69 488.387 367.804C485.56 368.008 482.885 372.467 480.54 373.84Z" fill="black"/>
<path d="M484.679 295.511C482.221 298.779 479.677 302.552 480.284 306.598C480.614 308.776 481.835 310.699 482.732 312.714C483.947 315.448 484.583 318.387 485.208 321.315C486.127 325.593 487.053 329.882 487.615 334.228C488.257 339.135 485.242 353.336 484.963 358.278C484.895 359.469 484.753 360.757 483.924 361.614C483.601 361.954 483.169 362.227 483.021 362.669C482.935 363.095 483.005 363.539 483.22 363.917C484.606 367.038 487.439 369.364 490.602 370.691C493.765 372.019 501.391 374.311 504.838 374.43C505.292 374.48 505.752 374.42 506.178 374.254C506.637 373.975 506.998 373.561 507.212 373.069C509.682 368.348 507.308 351.566 507.342 346.238C507.376 341.796 508.427 337.382 508.234 332.945C508.075 329.382 507.098 325.899 506.774 322.347C506.207 316.526 507.274 310.677 508.347 304.924C509.165 300.51 509.988 296.096 511.039 291.739C511.681 289.078 512.424 286.394 513.878 284.085C515.014 282.252 516.609 280.721 517.933 278.979C521.605 274.168 523.236 268.108 522.475 262.106C522.396 261.538 513.958 264.245 513.214 264.568C510.179 265.852 507.386 267.646 504.957 269.873C503.004 271.734 501.465 274.219 499.756 276.301C497.337 279.247 494.948 282.215 492.59 285.203C489.898 288.618 487.261 292.054 484.679 295.511Z" fill="#464353"/>
<path opacity="0.05" d="M484.679 295.313C482.221 298.581 479.677 302.359 480.284 306.399C480.614 308.583 481.835 310.506 482.732 312.521C483.947 315.25 484.583 318.194 485.208 321.116C486.127 325.399 487.053 329.689 487.615 334.029C488.257 338.942 485.242 353.137 484.963 358.079C484.895 359.27 484.753 360.564 483.924 361.421C483.601 361.755 483.169 362.028 483.021 362.47C482.934 362.897 483.005 363.34 483.22 363.718C484.606 366.845 487.439 369.165 490.602 370.527C493.765 371.888 501.391 373.074 504.838 373.188C505.292 373.238 505.752 373.177 506.178 373.012C506.637 372.736 506.999 372.323 507.212 371.832C509.682 367.111 507.308 351.407 507.342 346.074C507.376 341.626 508.427 337.217 508.234 332.775C508.075 329.212 507.098 325.728 506.774 322.183C506.207 316.356 507.274 310.506 508.347 304.753C509.165 300.345 509.988 295.931 511.039 291.568C511.681 288.907 512.424 286.224 513.878 283.915C515.014 282.082 516.609 280.55 517.933 278.808C521.606 273.998 523.238 267.938 522.475 261.935C522.396 261.368 513.958 264.074 513.214 264.398C510.179 265.686 507.387 267.482 504.957 269.708C503.004 271.563 501.465 274.048 499.756 276.131C497.337 279.077 494.948 282.046 492.59 285.038C489.898 288.427 487.261 291.852 484.679 295.313Z" fill="black"/>
<path d="M457.321 223.537C464.932 223.537 471.102 217.372 471.102 209.767C471.102 202.162 464.932 195.998 457.321 195.998C449.709 195.998 443.539 202.162 443.539 209.767C443.539 217.372 449.709 223.537 457.321 223.537Z" fill="#FBBEBE"/>
<path d="M469.734 209.189C471.007 211.218 472.676 212.97 474.642 214.341C476.608 215.711 478.83 216.672 481.176 217.166L480.137 220.939C478.342 227.418 476.326 234.271 471.318 238.765C471.886 236.569 471.159 234.226 469.921 232.32C468.683 230.413 466.946 228.916 465.242 227.435L457.309 220.57C457.08 220.384 456.888 220.157 456.741 219.9C456.546 219.416 456.546 218.875 456.741 218.391C457.752 215.248 460.637 213.285 462.988 211.163C464.167 210.066 465.221 208.84 466.128 207.509C467.712 205.251 468.695 207.521 469.734 209.189Z" fill="#FBBEBE"/>
<path d="M439.167 195.924L438.854 193.337C441.029 193.904 443.096 192.055 444.487 190.143C445.878 188.231 447.167 185.978 449.286 185.178C451.858 184.214 454.584 185.746 457.042 187.039C459.795 188.565 462.816 189.548 465.941 189.933C466.439 189.949 466.933 190.029 467.411 190.171C469.013 190.738 469.773 192.747 470.006 194.568C470.239 196.389 470.177 198.324 470.966 199.946C471.534 201.178 472.59 202.091 473.237 203.305C474.941 206.562 473.294 211.015 475.071 214.21L470.654 210.164C470.25 209.796 469.683 209.41 469.234 209.722C468.882 209.972 468.854 210.511 468.712 210.942C468.286 212.201 466.707 212.576 465.566 212.076C464.424 211.577 463.59 210.494 462.727 209.506C460.773 207.203 458.445 205.177 455.719 204.196C454.525 203.75 453.248 203.562 451.976 203.646C450.703 203.731 449.463 204.084 448.337 204.684C446.276 205.847 444.766 208.559 442.239 208.655C438.775 208.786 437.332 202.341 435.731 199.793C436.317 199.353 436.729 198.72 436.895 198.007C437.062 197.293 436.971 196.544 436.64 195.89C436.872 195.793 439.115 195.527 439.167 195.924Z" fill="#464353"/>
<path d="M268.705 115.422C267.597 116.406 266.574 117.48 265.644 118.634C264.708 119.803 264.21 121.261 264.236 122.758C264.241 123.192 264.38 123.614 264.633 123.967C264.763 124.135 264.942 124.259 265.146 124.321C265.349 124.383 265.567 124.38 265.769 124.313C265.997 124.197 266.193 124.025 266.337 123.813C266.937 123.093 267.574 122.404 268.245 121.748C268.489 121.504 268.813 121.249 269.142 121.34C269.29 121.392 269.422 121.48 269.528 121.595C269.91 121.925 270.188 122.359 270.329 122.843C270.528 123.711 270.022 124.579 269.449 125.26C268.875 125.941 268.199 126.593 267.967 127.45C267.879 127.676 267.879 127.927 267.967 128.154C268.076 128.317 268.23 128.447 268.41 128.528C269.223 128.975 270.124 129.239 271.051 129.3C271.977 129.36 272.905 129.217 273.77 128.88C274.906 128.42 275.916 127.632 277.086 127.223C277.593 127.085 278.084 126.895 278.551 126.656C278.886 126.433 279.173 126.147 279.396 125.813C279.619 125.479 279.774 125.104 279.852 124.71C279.999 123.922 280.028 123.117 279.937 122.321C279.795 119.239 279.135 116.203 277.983 113.34C277.917 113.155 277.803 112.991 277.654 112.864C277.483 112.76 277.286 112.706 277.086 112.71C275.633 112.557 273.248 111.814 271.845 112.353C271.354 112.622 270.931 112.998 270.607 113.454C270.346 113.743 268.705 115.042 268.705 115.422Z" fill="#A1616A"/>
<path d="M268.245 114.14C268.245 112.756 266.541 109.414 269.25 109.193C269.25 107.712 267.155 106.793 267.546 105.221C267.671 104.699 268.114 104.274 268.165 103.74C268.336 102.226 265.599 101.403 266.053 99.9505C266.223 99.3831 266.825 99.054 266.956 98.4924C267.263 97.1818 264.917 96.5974 264.872 95.2528C264.872 94.7989 265.127 94.3734 265.105 93.9195C265.105 93.3521 264.611 92.921 264.338 92.4274C263.628 91.1622 263.975 89.2048 262.68 88.5523C263.537 88.6261 263.816 87.3552 263.464 86.578C263.112 85.8007 262.39 85.1255 262.385 84.2632C262.427 83.9507 262.427 83.6339 262.385 83.3214C262.146 82.493 260.789 82.4249 260.562 81.6193C260.533 81.3101 260.523 80.9993 260.534 80.6888C260.443 80.0477 259.784 79.6392 259.165 79.4577C258.522 79.3486 257.903 79.1278 257.337 78.8052C256.939 78.5045 256.479 78.0053 256.053 78.2379C255.894 78.3343 255.815 78.5159 255.695 78.652C255.184 79.2478 254.208 78.9868 253.566 78.5499C251.669 77.262 250.727 74.9529 250.324 72.7005C249.92 70.4481 249.932 68.122 249.426 65.8923C249.272 65.1974 249.067 64.5147 248.813 63.8498C248.597 63.2825 247.905 62.3917 247.859 61.8187C247.757 60.5138 250.46 61.4045 251.488 61.535C252.486 61.6324 253.472 61.8223 254.435 62.1024C255.462 62.4902 256.469 62.9314 257.45 63.4243C261.55 65.2342 266.502 65.4554 269.795 68.4964C270.88 69.495 271.794 70.8056 273.202 71.2594C273.848 71.3831 274.485 71.548 275.11 71.753C276.672 72.4849 276.916 74.5558 277.768 76.0536C278.035 76.4491 278.269 76.8667 278.466 77.3017C278.63 77.8148 278.707 78.3518 278.693 78.8903L278.813 82.8221C279.006 89.409 279.199 96.013 278.495 102.56C278.267 104.722 277.927 106.946 278.568 109.022C278.739 109.59 278.977 110.123 279.136 110.696C279.277 111.368 279.349 112.052 279.352 112.739L279.443 115.286C279.474 115.484 279.43 115.687 279.318 115.853C279.223 115.93 279.112 115.985 278.993 116.014C278.874 116.042 278.75 116.044 278.631 116.018C275.082 115.7 271.493 113.703 268.143 114.912" fill="#464353"/>
<path d="M430.206 309.877C453.401 309.877 472.204 307.161 472.204 303.812C472.204 300.462 453.401 297.747 430.206 297.747C407.011 297.747 388.208 300.462 388.208 303.812C388.208 307.161 407.011 309.877 430.206 309.877Z" fill="#504F60"/>
<path d="M466.338 304.107C465.6 300.947 465.14 298.172 465.14 298.172C465.14 298.172 465.31 294.734 463.766 292.153V291.29V284.936C464.205 283.782 464.743 282.668 465.373 281.606C466.508 279.609 465.373 272.29 465.373 272.29C465.373 272.29 461.131 261.97 462.159 255.422C463.187 248.875 453.448 226.351 453.448 226.351C453.508 224.179 453.815 222.021 454.362 219.917C454.466 219.475 454.508 219.021 454.487 218.567C454.487 218.51 454.487 218.459 454.487 218.403C454.487 218.346 454.487 218.437 454.487 218.454C454.339 214.136 450.921 206.046 450.921 206.046L451.381 190.625C451.381 190.625 453.562 181.547 450.007 169.321C448.763 165.06 447.968 161.65 447.463 159.018C447.406 158.723 447.349 158.45 447.304 158.161C454.623 157.026 460.217 156.119 460.217 156.119C460.217 156.119 455.969 138.366 453.102 135.257C450.234 132.148 447.94 122.384 447.94 122.384C447.94 122.384 446.446 109.851 448.86 106.186C451.273 102.521 451.614 96.2005 451.614 96.2005C451.614 96.2005 457.116 92.229 457.809 90.4305C458.502 88.632 459.643 84.6606 459.643 82.5557C459.643 80.4508 458.956 78.5842 459.183 77.4495C459.41 76.3148 457.576 72.1221 458.496 70.125C458.734 69.5115 458.857 68.8596 458.86 68.2017C458.862 68.1828 458.862 68.1638 458.86 68.1449C458.868 66.3973 458.706 64.653 458.377 62.9366C456.785 61.5937 454.927 60.6019 452.926 60.0261L452.806 59.5495L452.494 58.3013C452.32 58.1862 452.14 58.0802 451.955 57.9836V57.5297L451.903 55.7256L452.767 51.6747C454.47 44.6281 445.05 43.5785 445.05 43.5785C444.478 42.4977 443.528 41.6654 442.381 41.241C440.49 40.5772 442.068 51.8392 442.948 52.5881C443.613 53.1555 445.668 56.6617 446.662 58.3978L446.821 58.6815C446.666 58.8212 446.521 58.973 446.39 59.1354L446.747 61.5806L446.804 61.9551C446.18 62.7297 445.673 63.5919 445.299 64.5139C445.299 64.5139 447.003 66.3975 446.679 68.4853C446.356 70.5732 447.207 73.2227 447.247 73.3646C447.145 73.2454 445.935 71.9405 444.726 72.2582C443.516 72.5759 440.138 73.5915 440.138 73.5915C440.138 73.5915 437.616 74.034 437.866 74.59C438.116 75.146 436.163 77.5857 436.163 77.5857L429.383 71.1632C429.314 70.9703 429.241 70.7774 429.184 70.5959C428.907 69.6699 428.717 68.7202 428.616 67.7591C429.355 67.5837 430.08 67.3542 430.785 67.0726C431.498 66.8282 432.14 66.4156 432.659 65.8698C433.346 65.0585 433.477 63.9578 433.755 62.948C434.289 60.9736 435.459 59.2205 436.271 57.3425C437.646 54.1692 438.089 50.6705 437.548 47.255C437.444 46.2024 437.088 45.1904 436.509 44.3048C435.402 42.7842 433.392 42.1658 431.932 40.9517C430.473 39.7376 429.53 37.8823 427.827 36.9802C426.288 36.1576 424.42 36.254 422.682 36.5377C419.288 37.0968 416.028 38.2819 413.068 40.0326C412.08 40.5999 410.99 41.2978 409.854 41.0879C408.878 40.912 408.151 40.1347 407.538 39.3858C407.544 39.3548 407.554 39.3244 407.566 39.295C407.538 39.2674 407.514 39.237 407.492 39.2042C406.774 40.7976 406.413 42.5289 406.436 44.2764C406.436 44.5487 406.436 44.8437 406.47 45.0877V45.3714C406.47 45.4508 406.47 45.5302 406.47 45.604C406.47 45.7249 406.453 45.8453 406.419 45.9614C406.276 46.3085 406.059 46.6202 405.783 46.8749C405.574 47.1114 405.385 47.3637 405.215 47.6294C405.215 47.5387 405.272 47.4479 405.306 47.3514C404.873 47.9832 404.629 48.7251 404.602 49.4904C404.57 50.0475 404.753 50.5956 405.113 51.0222C405.453 51.3521 405.824 51.6484 406.22 51.9073C406.085 52.6562 406.017 53.4157 406.016 54.1767C406.029 56.4328 406.624 58.6474 407.744 60.6064C408.864 62.5653 410.471 64.2024 412.41 65.3592C412.489 65.5464 412.563 65.7393 412.637 65.9266C413.506 68.196 414.159 70.8625 413.869 73.3022C413.869 73.478 413.818 73.6596 413.79 73.8355C413.761 74.0113 413.619 74.0227 413.545 74.1191C413.545 74.1191 402.342 74.2326 399.707 71.8497C397.072 69.4668 393.052 77.6764 393.052 77.6764C393.052 77.6764 389.037 78.4537 388.231 77.6764C387.424 76.8992 382.728 77.5686 382.728 77.5686C380.804 75.8591 378.301 74.9461 375.727 75.0156C374.167 73.8315 372.446 72.8762 370.616 72.1788L370.491 72.1334C369.684 71.8392 368.82 71.7306 367.964 71.8157C367.964 71.8157 362.456 67.2769 360.849 64.8259C359.242 62.3749 351.593 53.3257 351.559 53.2859V52.8491L351.474 51.5328C351.247 51.5684 351.017 51.5874 350.787 51.5896C350.747 51.4591 350.69 51.3059 350.634 51.13C350.193 49.8461 349.65 48.5996 349.01 47.4025C349.01 47.4025 349.01 45.7402 349.492 45.3203C349.975 44.9005 349.294 38.8014 349.294 38.8014C349.294 38.8014 344.331 27.2104 339.884 35.8625C339.884 35.8625 331.48 41.4623 338.533 47.9869C338.533 47.9869 341.372 49.3485 341.747 50.4265C342.008 51.1243 342.962 53.0817 343.604 54.398L343.893 54.9653L343.814 55.0334L343.916 56.1227L343.962 56.5426C342.633 57.2971 341.73 58.046 341.951 58.6077C342.343 59.5689 342.612 60.5753 342.752 61.6033C342.752 61.6033 352.508 73.8128 353.768 79.0267C353.768 79.0267 379.929 94.5609 388.532 95.6672L387.01 103.412C386.788 105.513 386.675 107.624 386.669 109.738C386.783 111.4 385.636 118.946 385.636 118.946C385.636 118.946 384.142 130.043 382.882 131.598C381.621 133.152 381.848 139.807 381.848 139.807C381.551 142.993 380.981 146.148 380.145 149.237C378.884 153.452 379.798 158.672 379.798 158.672C379.798 158.672 375.443 168.657 385.88 161.889C385.88 161.889 390.991 161.571 396.907 161.367C396.907 161.56 396.907 161.758 396.907 161.934C396.907 162.694 396.907 163.517 396.868 164.379C396.788 170.098 396.754 177.996 397.015 183.942C397.475 194.483 400.689 215.345 400.689 215.345V225.846C400.482 226.831 400.379 227.835 400.383 228.842C400.315 232.537 401.299 236.175 403.222 239.332L404.028 246.322C404.028 246.322 405.914 250.929 405.948 253.698C405.94 253.921 405.914 254.143 405.868 254.361C405.795 254.714 405.764 255.074 405.777 255.434C405.669 258.611 407.583 266.214 407.583 266.214C407.583 266.214 407.697 273.867 408.844 274.315C409.826 274.695 407.532 278.724 406.85 279.881C406.832 279.81 406.819 279.738 406.811 279.665L406.669 279.892C406.432 280.512 406.311 281.17 406.311 281.833C406.246 282.355 406.332 282.885 406.557 283.362C406.782 283.838 407.138 284.24 407.583 284.522C409.764 285.855 410.933 286.962 409.082 287.404C408.401 287.51 407.726 287.652 407.061 287.83C407.061 287.745 406.992 287.654 406.964 287.574C406.703 287.676 406.485 287.865 406.347 288.109C406.21 288.353 406.161 288.637 406.209 288.913C406.226 289.813 406.458 290.696 406.885 291.489C408.719 295.597 409.991 297.163 409.991 297.163L410.871 297.066C410.741 297.402 410.569 297.72 410.36 298.014C410.025 298.489 409.581 298.878 409.065 299.148C408.584 299.436 408.048 299.619 407.492 299.687C406.87 299.708 406.26 299.858 405.7 300.13C405.14 300.402 404.644 300.788 404.244 301.265C403.108 302.745 402.382 304.759 404.642 306.53L412.847 309.366C412.847 309.366 426.964 311.199 426.214 308.033C425.464 304.867 425.01 302.099 425.01 302.099C425.071 300.166 424.682 298.245 423.875 296.487C423.726 296.201 423.56 295.924 423.375 295.659L423.875 295.608C423.875 295.608 424.908 288.613 426.282 287.285C426.6 286.979 426.674 286.718 426.6 286.559C426.742 286.179 426.379 285.957 425.919 285.827L425.817 286.105C425.367 286.007 424.908 285.956 424.448 285.952C424.448 285.952 423.988 282.292 425.482 280.959C425.602 280.807 425.69 280.632 425.74 280.444C425.79 280.257 425.8 280.061 425.771 279.87C425.782 279.368 425.729 278.866 425.612 278.378C425.597 278.409 425.58 278.439 425.561 278.468C424.811 275.144 422.268 269.862 422.268 269.862C422.268 269.862 422.154 266.537 423.074 265.204C423.994 263.87 422.955 247.116 422.955 247.116C422.955 247.116 423.301 239.02 422.268 235.247C421.234 231.474 423.528 227.032 423.528 227.032C423.528 227.032 423.528 226.947 423.528 226.794V226.737L423.398 225.461C423.394 225.487 423.394 225.514 423.398 225.54C423.165 223.395 422.727 219.509 422.404 217.716C421.944 215.163 422.523 202.965 422.523 202.965L424.584 197.745L428.258 206.738L432.159 218.72C432.159 218.72 434.09 221.251 434.135 223.827C434.135 223.951 434.135 224.076 434.135 224.201C434.104 224.466 434.089 224.734 434.09 225.001C434.021 226.515 434.437 228.011 435.277 229.273C435.277 229.273 436.31 234.947 437.917 236.371C439.524 237.795 439.524 240.586 439.524 240.586C439.524 240.586 441.472 248.801 442.364 250.231C443.136 251.445 443.176 254.77 443.17 255.808C443.17 255.995 443.17 256.103 443.17 256.103C443.17 256.103 443.442 259.042 443.431 261.504C443.431 261.811 443.431 262.106 443.431 262.384C443.434 262.363 443.434 262.342 443.431 262.321C443.431 262.994 443.351 263.665 443.193 264.319L443.159 264.432C443.159 264.29 443.159 264.154 443.198 264.018C442.799 265.69 442.608 267.405 442.63 269.124C442.579 272.074 443.028 275.569 444.817 277.634C447.917 281.186 449.865 280.743 449.865 280.743C449.865 280.743 448.377 285.18 446.537 286.071C446.468 286.104 446.403 286.146 446.344 286.196C446.344 286.105 446.31 286.02 446.299 285.935C446.094 286.156 445.937 286.418 445.839 286.703C445.742 286.988 445.705 287.291 445.731 287.591C445.6 289.543 446.833 292.698 448.002 294.167C448.437 294.592 448.969 294.904 449.553 295.075C449.46 295.14 449.363 295.199 449.263 295.251C449.059 295.363 448.848 295.463 448.633 295.551C448.334 295.678 448.018 295.76 447.696 295.795C447.073 295.812 446.461 295.961 445.901 296.233C445.341 296.505 444.845 296.894 444.448 297.372C443.312 298.848 442.585 300.862 444.845 302.632L453.05 305.469C453.05 305.469 467.076 307.267 466.338 304.107Z" fill="url(#paint0_linear_8_6288)"/>
<path d="M412.444 309.349L404.494 306.513C402.302 304.742 403 302.728 404.108 301.248C404.489 300.775 404.967 300.39 405.51 300.118C406.052 299.846 406.647 299.693 407.254 299.67C407.792 299.602 408.309 299.418 408.77 299.131C409.274 298.858 409.706 298.469 410.03 297.997C410.61 297.077 410.923 296.014 410.933 294.927C410.933 294.927 419.655 292.374 422.04 294.927C422.466 295.389 422.822 295.911 423.097 296.476C423.889 298.238 424.277 300.156 424.232 302.087C424.232 302.087 424.675 304.856 425.396 308.022C426.117 311.188 412.444 309.349 412.444 309.349Z" fill="#2D293D"/>
<path d="M451.307 305.434L443.357 302.598C441.165 300.827 441.864 298.813 442.971 297.338C443.349 296.864 443.826 296.478 444.368 296.205C444.91 295.933 445.505 295.781 446.111 295.761C446.425 295.729 446.732 295.646 447.02 295.517C447.23 295.428 447.435 295.328 447.633 295.216C449.853 293.997 449.797 291.001 449.797 291.001C449.797 291.001 458.513 288.448 460.904 291.001C461.224 291.347 461.504 291.727 461.738 292.136C463.232 294.717 463.067 298.161 463.067 298.161C463.067 298.161 463.51 300.935 464.203 304.095C464.896 307.256 451.307 305.434 451.307 305.434Z" fill="#2D293D"/>
<path opacity="0.1" d="M422.046 294.921C422.472 295.384 422.827 295.905 423.102 296.47L410.042 297.985C410.622 297.065 410.934 296.003 410.945 294.916C410.945 294.916 419.661 292.368 422.046 294.921Z" fill="black"/>
<path opacity="0.1" d="M461.75 292.147V294.592C459.717 297.934 449.888 297.202 447.031 295.528C447.241 295.44 447.446 295.339 447.645 295.228C449.865 294.008 449.808 291.012 449.808 291.012C449.808 291.012 458.524 288.459 460.915 291.012C461.235 291.358 461.515 291.739 461.75 292.147Z" fill="black"/>
<path d="M463.3 281.605C462.692 282.671 462.174 283.785 461.75 284.936V293.701C459.524 297.361 447.98 296.141 446.418 294.144C444.856 292.147 443.227 286.95 444.981 286.048C446.736 285.146 448.201 280.72 448.201 280.72C448.201 280.72 446.31 281.163 443.312 277.611C440.314 274.06 441.205 266.185 441.762 264.301C442.318 262.418 441.762 256.092 441.762 256.092C441.762 256.092 441.875 251.649 440.989 250.208C440.104 248.767 438.213 240.563 438.213 240.563C438.213 240.563 438.213 237.789 436.657 236.348C435.101 234.907 434.101 229.244 434.101 229.244C433.192 227.83 432.8 226.144 432.994 224.473C433.323 221.699 431.103 218.703 431.103 218.703L427.327 206.715L423.772 197.728L421.773 202.942C421.773 202.942 421.206 215.146 421.666 217.693C422.126 220.241 422.801 227.015 422.801 227.015C422.801 227.015 420.581 231.451 421.58 235.224C422.58 238.997 422.216 247.105 422.216 247.105C422.216 247.105 423.216 263.853 422.324 265.186C421.433 266.52 421.546 269.85 421.546 269.85C421.546 269.85 426.089 279.608 424.658 280.942C423.227 282.275 423.659 285.934 423.659 285.934C423.659 285.934 426.765 285.934 425.436 287.268C424.107 288.601 423.102 295.591 423.102 295.591L409.673 297.162C409.673 297.162 408.446 295.613 406.669 291.489C404.891 287.364 406.998 287.829 408.787 287.381C410.575 286.933 409.445 285.832 407.333 284.499C405.221 283.166 406.447 280.17 406.447 280.17C406.447 280.17 409.667 274.735 408.554 274.292C407.441 273.85 407.333 266.19 407.333 266.19C407.333 266.19 405.113 257.113 405.669 254.651C406.226 252.188 403.892 246.333 403.892 246.333L403.114 239.343C400.738 235.377 399.871 230.688 400.672 226.135V215.356C400.672 215.356 397.56 194.5 397.118 183.958C396.834 177.207 396.913 167.993 397.004 162.246C397.061 159.023 397.118 156.884 397.118 156.884L445.089 151.892C445.089 151.892 445.044 154.104 445.958 159.012C446.452 161.644 447.219 165.054 448.422 169.315C451.864 181.519 449.757 190.613 449.757 190.613L449.308 206.04C449.308 206.04 453.527 216.354 452.642 219.906C452.106 222.015 451.805 224.176 451.744 226.351C451.744 226.351 461.182 248.875 460.183 255.422C459.183 261.969 463.289 272.29 463.289 272.29C463.289 272.29 464.413 279.608 463.3 281.605Z" fill="#464353"/>
<path opacity="0.05" d="M435.873 223.803L450.478 221.857C450.478 221.857 442.205 230.294 435.873 223.803Z" fill="black"/>
<path opacity="0.1" d="M448.366 207.6C448.366 207.6 448.865 212.763 445.703 214.703C445.703 214.703 451.364 213.818 448.366 207.6Z" fill="black"/>
<path opacity="0.1" d="M447.468 191.181C447.468 191.181 435.26 201.223 430.819 200.389C426.379 199.555 447.468 191.181 447.468 191.181Z" fill="black"/>
<path opacity="0.1" d="M417.77 228.513C417.77 228.513 408.497 230.618 408.219 234.339C407.941 238.061 417.77 228.513 417.77 228.513Z" fill="black"/>
<path opacity="0.05" d="M419.809 274.786C419.809 274.786 406.708 277.226 410.428 278.888C414.147 280.55 420.257 281.884 420.257 281.884C420.257 281.884 424.488 282.105 419.809 274.786Z" fill="black"/>
<g opacity="0.05">
<path d="M407.782 281.532C407.452 281.326 407.173 281.049 406.966 280.721C406.759 280.393 406.628 280.022 406.583 279.637L406.447 279.869C406.447 279.869 405.226 282.865 407.339 284.193C407.577 284.346 407.81 284.499 408.02 284.646C408.412 284.573 408.832 284.516 409.235 284.414C411.024 283.971 409.894 282.865 407.782 281.532Z" fill="black"/>
<path d="M424.658 280.641C425.022 280.312 425.01 279.461 424.789 278.372C424.221 279.228 424.056 280.567 424.045 281.583C424.183 281.23 424.391 280.91 424.658 280.641Z" fill="black"/>
<path d="M422.642 225.443C422.16 226.755 421.862 228.128 421.756 229.522C422.01 228.559 422.35 227.621 422.773 226.719L422.642 225.443Z" fill="black"/>
<path d="M452.647 219.622C452.734 219.223 452.774 218.816 452.766 218.408C452.602 219.236 452.488 220.002 452.403 220.677C452.477 220.331 452.556 220.002 452.647 219.622Z" fill="black"/>
<path d="M422.33 264.891C422.512 264.619 422.614 263.7 422.659 262.423C422.248 263.411 422.031 264.468 422.018 265.538C422.095 265.311 422.2 265.094 422.33 264.891Z" fill="black"/>
<path d="M425.056 285.815C424.367 288.04 423.856 290.317 423.528 292.623L410.098 294.172C410.098 294.172 408.872 292.623 407.095 288.499C406.951 288.18 406.824 287.854 406.714 287.523C405.908 287.891 405.578 288.725 406.646 291.159C408.423 295.267 409.656 296.833 409.656 296.833L423.085 295.278C423.085 295.278 424.085 288.289 425.413 286.955C426.095 286.314 425.675 285.979 425.056 285.815Z" fill="black"/>
<path d="M407.339 265.89C407.339 265.89 407.447 273.543 408.56 273.986C409.127 272.721 409.497 271.518 408.997 271.319C407.861 270.877 407.776 263.217 407.776 263.217C407.776 263.217 405.556 254.14 406.112 251.677C406.669 249.215 404.335 243.36 404.335 243.36L403.557 236.37C401.181 232.404 400.314 227.715 401.115 223.162V212.383C401.115 212.383 398.003 191.527 397.56 180.985C397.277 174.234 397.356 165.02 397.447 159.273C397.447 158.234 397.481 157.315 397.498 156.538L397.118 156.578C397.118 156.578 397.055 158.711 397.004 161.939C396.913 167.687 396.828 176.9 397.118 183.646C397.56 194.188 400.667 215.049 400.667 215.049V225.829C399.87 230.381 400.738 235.067 403.114 239.031L403.886 246.021C403.886 246.021 406.22 251.899 405.664 254.344C405.107 256.789 407.339 265.89 407.339 265.89Z" fill="black"/>
<path d="M446.872 291.182C445.781 289.604 445.054 287.804 444.743 285.912C443.374 287.148 444.947 291.948 446.446 293.855C447.997 295.852 459.547 297.071 461.778 293.406V291.296C458.752 294.263 448.337 293.072 446.872 291.182Z" fill="black"/>
<path d="M463.749 278.644C463.14 279.709 462.619 280.823 462.193 281.974V283.546C462.448 282.978 462.806 282.218 463.328 281.322C463.68 280.448 463.846 279.511 463.817 278.57C463.817 278.57 463.766 278.621 463.749 278.644Z" fill="black"/>
<path d="M447.554 280.397C447.976 279.542 448.342 278.661 448.65 277.759C448.65 277.759 446.759 278.201 443.76 274.65C441.58 272.068 441.455 267.189 441.767 264C441.199 265.89 440.319 273.765 443.317 277.316C445.277 279.637 446.759 280.249 447.554 280.397Z" fill="black"/>
<path d="M441.762 255.791C441.957 257.977 442.031 260.172 441.983 262.366C442.039 262.02 442.114 261.677 442.21 261.34C442.778 259.45 442.21 253.13 442.21 253.13C442.21 253.13 442.324 248.688 441.432 247.247C440.541 245.805 438.684 237.59 438.684 237.59C438.684 237.59 438.684 234.816 437.128 233.375C435.572 231.934 434.573 226.272 434.573 226.272C433.655 224.859 433.254 223.174 433.437 221.5C433.772 218.726 431.552 215.73 431.552 215.73L427.776 203.748L424.221 194.761L422.216 199.98C422.216 199.98 422.216 200.639 422.148 201.682L423.772 197.444L427.327 206.414L431.103 218.397C431.103 218.397 433.323 221.392 432.988 224.167C432.805 225.84 433.206 227.526 434.124 228.938C434.124 228.938 435.123 234.612 436.679 236.041C438.235 237.471 438.23 240.257 438.23 240.257C438.23 240.257 440.121 248.466 441.006 249.902C441.892 251.337 441.762 255.791 441.762 255.791Z" fill="black"/>
</g>
<path d="M451.086 51.6575L450.251 55.7084L450.302 57.5126L450.336 58.8402L445.702 59.3168L445.186 58.3579C444.226 56.6218 442.233 53.0929 441.591 52.5482C440.734 51.8334 439.206 40.5657 441.023 41.2352C442.142 41.6669 443.061 42.4977 443.601 43.567C443.601 43.567 452.727 44.611 451.086 51.6575Z" fill="#FFCDD3"/>
<path opacity="0.1" d="M450.336 58.8402L445.702 59.3167L445.186 58.3579C445.809 57.649 446.659 57.1779 447.591 57.0248C448.523 56.8717 449.479 57.046 450.296 57.5182L450.336 58.8402Z" fill="black"/>
<path d="M451.506 61.036L445.396 62.4487L445.265 61.5409L444.919 59.0956C444.919 59.0956 447.338 55.873 450.836 58.29L451.142 59.5325L451.506 61.036Z" fill="#240051"/>
<path d="M352.53 52.1002L346.006 55.5951L345.438 54.3696C344.819 53.0704 343.893 51.113 343.638 50.3982C343.252 49.3202 340.532 47.9585 340.532 47.9585C333.718 41.4397 341.838 35.8342 341.838 35.8342C346.142 27.1821 350.923 38.7731 350.923 38.7731C350.923 38.7731 351.593 44.8835 351.122 45.292C350.651 45.7005 350.651 47.3742 350.651 47.3742C351.273 48.5733 351.799 49.8197 352.224 51.1017C352.422 51.7201 352.53 52.1002 352.53 52.1002Z" fill="#FFCDD3"/>
<path opacity="0.1" d="M352.53 52.0999L346.006 55.5948L345.438 54.3694C346.358 53.5978 349.623 50.9652 350.696 51.073C351.208 51.1369 351.726 51.1502 352.241 51.1128C352.422 51.7198 352.53 52.0999 352.53 52.0999Z" fill="black"/>
<path d="M353.195 54.0686L345.864 57.6769L345.716 56.1053L345.614 55.016C345.614 55.016 349.861 51.3793 351.116 51.5211C351.751 51.613 352.395 51.613 353.03 51.5211L353.115 52.8374L353.195 54.0686Z" fill="#240051"/>
<path d="M433.318 78.5669C433.318 78.5669 401.359 82.1696 407.333 80.2292C411.49 78.8733 413.142 76.2578 413.489 73.3075C413.772 70.8509 413.136 68.2013 412.302 65.9319C411.551 63.9187 410.599 61.9857 409.462 60.162C409.462 60.162 433.88 46.7384 429.002 58.9421C428.25 60.788 427.783 62.7374 427.617 64.7235C427.47 66.6972 427.683 68.6811 428.247 70.5786C429.168 73.6573 430.923 76.4219 433.318 78.5669Z" fill="#FFCDD3"/>
<path opacity="0.1" d="M428.985 58.925C428.233 60.7709 427.766 62.7203 427.6 64.7064C425.3 66.6411 422.779 66.5106 419.536 66.5106C417.049 66.5106 414.289 67.112 412.302 65.9148C411.551 63.9016 410.599 61.9686 409.463 60.1449C409.463 60.1449 433.874 46.7213 428.985 58.925Z" fill="black"/>
<path d="M419.105 67.3616C426.402 67.3616 432.318 61.4508 432.318 54.1593C432.318 46.8679 426.402 40.957 419.105 40.957C411.807 40.957 405.891 46.8679 405.891 54.1593C405.891 61.4508 411.807 67.3616 419.105 67.3616Z" fill="#FFCDD3"/>
<path opacity="0.1" d="M433.318 78.5671C433.318 78.5671 401.359 82.1698 407.333 80.2295C411.49 78.8735 413.142 76.258 413.489 73.3078C415.078 71.6057 418.275 70.3405 420.303 69.6824C422.177 69.0527 424.2 69.019 426.095 69.5859C426.84 69.8101 427.549 70.1387 428.201 70.5618C429.132 73.6519 430.904 76.4232 433.318 78.5671Z" fill="black"/>
<path opacity="0.1" d="M451.506 61.0359L445.396 62.4486L445.265 61.5408C445.919 60.643 446.835 59.9684 447.886 59.609C448.938 59.2496 450.075 59.2229 451.142 59.5324L451.506 61.0359Z" fill="black"/>
<path opacity="0.1" d="M353.195 54.0689L345.864 57.6772L345.716 56.1057C348.091 54.8301 350.558 53.7357 353.098 52.832L353.195 54.0689Z" fill="black"/>
<path opacity="0.1" d="M445.958 159.023C433.573 160.997 415.97 163.517 413.176 162.666C410.854 161.962 403.449 162.036 397.004 162.257C397.061 159.034 397.118 156.896 397.118 156.896L445.089 151.903C445.089 151.903 445.044 154.116 445.958 159.023Z" fill="black"/>
<path d="M458.303 156.118C458.303 156.118 417.549 163.108 413.176 161.792C408.804 160.476 386.345 161.9 386.345 161.9C376.238 168.668 380.457 158.683 380.457 158.683C380.457 158.683 379.571 153.469 380.792 149.253C381.612 146.158 382.172 143.001 382.467 139.813C382.467 139.813 382.246 133.152 383.467 131.597C384.687 130.043 386.135 118.951 386.135 118.951C386.135 118.951 387.243 111.405 387.135 109.743C387.027 108.081 387.464 103.417 387.464 103.417L388.912 95.6498C380.582 94.5435 355.262 79.0094 355.262 79.0094C354.041 73.7954 344.603 61.5916 344.603 61.5916C344.466 60.5654 344.204 59.5595 343.825 58.596C343.161 56.8202 353.155 53.2686 353.155 53.2686C353.155 53.2686 360.594 62.3462 362.15 64.8085C363.705 67.2708 369.032 71.7983 369.032 71.7983C369.859 71.7133 370.695 71.822 371.474 72.116L371.604 72.1557C373.389 72.8559 375.063 73.8114 376.573 74.9925C379.077 74.9332 381.506 75.8486 383.347 77.5456C383.347 77.5456 387.89 76.8761 388.679 77.6534C389.469 78.4307 393.341 77.6534 393.341 77.6534C393.341 77.6534 397.225 69.4438 399.781 71.8267C402.336 74.2096 413.176 74.0961 413.176 74.0961C414.619 72.1784 418.134 70.8054 420.331 70.1246C422.206 69.4975 424.229 69.4638 426.123 70.0282C426.94 70.2718 427.709 70.6558 428.394 71.1629L434.987 77.5966C434.987 77.5966 436.872 75.1514 436.651 74.601C436.43 74.0507 438.871 73.6025 438.871 73.6025C438.871 73.6025 442.091 72.6039 443.312 72.2692C444.533 71.9345 445.651 73.2564 445.754 73.3755C445.714 73.2337 444.879 70.5388 445.186 68.4963C445.492 66.4538 443.851 64.5248 443.851 64.5248C447.735 54.982 456.509 62.9703 456.509 62.9703C456.509 62.9703 457.508 68.1843 456.622 70.1813C455.736 72.1784 457.508 76.3939 457.287 77.5059C457.065 78.6179 457.735 80.5015 457.735 82.612C457.735 84.7226 456.599 88.7111 455.958 90.4869C455.316 92.2627 449.961 96.2569 449.961 96.2569C449.961 96.2569 449.626 102.583 447.292 106.242C444.959 109.902 446.424 122.418 446.424 122.418C446.424 122.418 448.644 132.182 451.421 135.291C454.197 138.4 458.303 156.118 458.303 156.118Z" fill="#3F3D56"/>
<path opacity="0.1" d="M398.895 83.1114C398.895 83.1114 397.674 79.452 396.561 79.1399C395.456 78.7339 394.38 78.2524 393.341 77.6989L394.057 76.3315C394.057 76.3315 398.225 77.4662 398.895 78.6974C399.565 79.9286 398.895 83.1114 398.895 83.1114Z" fill="black"/>
<path opacity="0.1" d="M376.573 75.0154C376.351 76.1501 366.465 77.1203 366.465 77.1203L371.462 72.1162L371.587 72.1616C373.379 72.8655 375.059 73.8269 376.573 75.0154Z" fill="black"/>
<path d="M347.976 60.6725C348.465 60.6725 348.862 60.2762 348.862 59.7874C348.862 59.2986 348.465 58.9023 347.976 58.9023C347.487 58.9023 347.09 59.2986 347.09 59.7874C347.09 60.2762 347.487 60.6725 347.976 60.6725Z" fill="#575988"/>
<path d="M349.112 62.4484C349.601 62.4484 349.998 62.0521 349.998 61.5633C349.998 61.0745 349.601 60.6782 349.112 60.6782C348.623 60.6782 348.226 61.0745 348.226 61.5633C348.226 62.0521 348.623 62.4484 349.112 62.4484Z" fill="#575988"/>
<path d="M350.225 64.088C350.714 64.088 351.111 63.6918 351.111 63.2029C351.111 62.7141 350.714 62.3179 350.225 62.3179C349.736 62.3179 349.339 62.7141 349.339 63.2029C349.339 63.6918 349.736 64.088 350.225 64.088Z" fill="#575988"/>
<path d="M351.389 65.8585C351.878 65.8585 352.275 65.4623 352.275 64.9734C352.275 64.4846 351.878 64.0884 351.389 64.0884C350.9 64.0884 350.503 64.4846 350.503 64.9734C350.503 65.4623 350.9 65.8585 351.389 65.8585Z" fill="#575988"/>
<path d="M456.066 65.5973C456.464 65.5973 456.787 65.2747 456.787 64.8768C456.787 64.4788 456.464 64.1562 456.066 64.1562C455.667 64.1562 455.344 64.4788 455.344 64.8768C455.344 65.2747 455.667 65.5973 456.066 65.5973Z" fill="#575988"/>
<path d="M456.179 67.237C456.578 67.237 456.9 66.9144 456.9 66.5164C456.9 66.1185 456.578 65.7959 456.179 65.7959C455.781 65.7959 455.458 66.1185 455.458 66.5164C455.458 66.9144 455.781 67.237 456.179 67.237Z" fill="#575988"/>
<path d="M456.276 68.8708C456.674 68.8708 456.997 68.5482 456.997 68.1502C456.997 67.7523 456.674 67.4297 456.276 67.4297C455.878 67.4297 455.555 67.7523 455.555 68.1502C455.555 68.5482 455.878 68.8708 456.276 68.8708Z" fill="#575988"/>
<path opacity="0.1" d="M398.935 113.181C398.827 113.051 423.863 144.635 443.295 126.383C443.312 126.389 412.608 130.548 398.935 113.181Z" fill="black"/>
<path opacity="0.1" d="M384.568 129.601C384.568 129.601 399.548 130.009 401.115 134.315V138.797C400.689 139.034 400.209 139.158 399.721 139.158C399.233 139.158 398.754 139.034 398.327 138.797C396.817 137.98 387.759 133.385 384.568 135.598V129.601Z" fill="black"/>
<path d="M384.846 129.601C384.846 129.601 399.173 129.992 400.672 134.1V138.366C400.264 138.593 399.805 138.712 399.338 138.712C398.871 138.712 398.412 138.593 398.003 138.366C396.561 137.595 387.901 133.209 384.846 135.319V129.601Z" fill="#3F3D56"/>
<path opacity="0.1" d="M392.745 97.1025C394.276 100.642 396.226 103.985 398.554 107.06C401.086 110.458 404.155 113.422 407.64 115.837C407.64 115.837 392.995 99.1564 392.745 97.1025Z" fill="black"/>
<path opacity="0.1" d="M387.845 79.7129C387.845 79.7129 390.343 90.4926 396.783 94.152L387.845 79.7129Z" fill="black"/>
<path opacity="0.1" d="M384.012 80.8022C383.949 80.6036 381.791 89.3125 392.314 94.152C392.314 94.152 387.845 92.6371 384.012 80.8022Z" fill="black"/>
<path opacity="0.1" d="M449.422 73.5741C449.257 73.5741 454.612 76.9782 456.071 78.5668C456.071 78.5668 452.585 73.3471 449.422 73.5741Z" fill="black"/>
<path d="M415.533 66.1252C415.535 66.4132 415.597 66.6977 415.714 66.9606C415.832 67.2236 416.003 67.4593 416.216 67.6528C416.43 67.8464 416.681 67.9936 416.954 68.0851C417.228 68.1767 417.517 68.2106 417.804 68.1847C421.83 68.4343 426.027 68.6102 429.729 67.05C430.423 66.8023 431.047 66.3895 431.546 65.8472C432.205 65.0358 432.335 63.9352 432.602 62.9253C433.125 60.9509 434.238 59.1978 435.038 57.3198C436.393 54.1471 436.847 50.6628 436.35 47.2493C436.245 46.203 435.899 45.1951 435.339 44.3048C434.272 42.7786 432.324 42.1602 430.91 40.946C429.496 39.7319 428.588 37.8767 426.935 36.9746C425.447 36.1462 423.625 36.2484 421.949 36.532C418.655 37.0911 415.497 38.2755 412.648 40.0213C411.689 40.5886 410.638 41.2865 409.536 41.0765C408.571 40.895 407.867 40.0837 407.265 39.3234C406.491 41.139 406.165 43.1143 406.317 45.0821C406.359 45.3708 406.349 45.6647 406.288 45.9501C406.149 46.2952 405.938 46.6066 405.669 46.8635C404.676 47.9982 404.057 49.8421 405.039 51.0109C405.465 51.5158 406.124 51.7938 406.538 52.3101C407.282 53.2349 407.032 54.5795 407.015 55.7596C406.974 56.1717 407.079 56.5851 407.31 56.9284C407.525 57.1285 407.788 57.2696 408.074 57.3382C408.359 57.4068 408.658 57.4005 408.94 57.3198C409.503 57.1505 410.093 57.0946 410.678 57.1553C411.293 57.3553 411.825 57.7546 412.188 58.29C414.022 60.6786 414.749 63.2771 415.533 66.1252Z" fill="#2D293D"/>
<g opacity="0.1">
<path d="M432.017 64.8428C431.518 65.3851 430.895 65.7979 430.2 66.0455C426.475 67.5944 422.284 67.4185 418.275 67.1802C417.845 67.1845 417.419 67.0894 417.032 66.9022C416.419 66.5448 416.186 65.7959 415.998 65.1151C415.215 62.2783 414.494 59.6742 412.631 57.3083C412.272 56.7626 411.74 56.353 411.121 56.1452C410.536 56.0902 409.947 56.146 409.383 56.3098C409.101 56.3911 408.803 56.3984 408.517 56.3308C408.232 56.2632 407.969 56.1231 407.753 55.924C407.522 55.5807 407.417 55.1673 407.458 54.7552C407.458 53.5638 407.725 52.2305 406.981 51.3057C406.567 50.7894 405.908 50.5114 405.482 50.0008C405.204 49.6243 405.034 49.1797 404.989 48.7141C404.944 48.2486 405.026 47.7795 405.226 47.3569C404.517 48.4916 404.216 49.9157 405.039 50.8915C405.465 51.3965 406.124 51.6745 406.538 52.1908C407.282 53.1212 407.032 54.4602 407.015 55.6403C406.971 56.0517 407.074 56.4654 407.305 56.809C407.52 57.0101 407.784 57.1518 408.071 57.2204C408.357 57.2891 408.657 57.2822 408.94 57.2005C409.503 57.0312 410.093 56.9753 410.678 57.036C411.293 57.236 411.825 57.6352 412.188 58.1707C414.045 60.5365 414.772 63.135 415.556 65.9831C415.647 66.684 415.998 67.3253 416.538 67.7816C416.927 67.9691 417.355 68.0624 417.787 68.054C421.813 68.3036 426.01 68.4852 429.712 66.9193C430.407 66.6733 431.031 66.2602 431.529 65.7165C431.779 65.3969 431.972 65.0359 432.097 64.6498C432.103 64.7236 432.063 64.786 432.017 64.8428Z" fill="black"/>
<path d="M406.317 45.6038C406.495 45.4103 406.632 45.1825 406.72 44.9344C406.771 44.6473 406.771 44.3534 406.72 44.0663C406.609 42.4488 406.819 40.8253 407.339 39.2892L407.265 39.2041C406.488 41.017 406.163 42.991 406.317 44.9571C406.334 45.1723 406.334 45.3886 406.317 45.6038Z" fill="black"/>
</g>
<path opacity="0.1" d="M413.176 74.1248C413.176 74.1248 429.684 76.3148 431.166 73.8354L413.176 74.1248Z" fill="black"/>
<path opacity="0.1" d="M445.265 67.2993C445.265 67.2993 454.442 67.2993 456.457 70.7488L445.265 67.2993Z" fill="black"/>
<path d="M496.604 373.755C493.883 376.186 490.346 377.507 486.695 377.454C485.764 377.454 484.475 377.63 484.469 378.561C484.492 378.834 484.586 379.096 484.742 379.321C485.894 381.24 487.714 382.668 489.853 383.332C491.84 383.934 493.964 383.831 496.036 383.724L502.084 383.412C503.22 383.349 504.355 383.292 505.491 383.151C506.627 383.009 507.865 382.776 509.051 382.583C511.968 382.169 514.917 382.032 517.859 382.175C518.642 382.203 519.562 382.175 520.028 381.607C520.494 381.04 520.255 379.956 520.079 379.105C519.716 377.352 520.079 375.514 519.744 373.755C519.176 370.669 516.502 368.303 513.571 367.185C510.846 366.153 506.019 364.967 503.441 366.692C500.721 368.502 499.057 371.526 496.604 373.755Z" fill="#3F3D56"/>
<path d="M502.612 270.35C503.146 272.886 505.605 274.826 505.673 277.413C505.735 279.49 504.253 281.231 503.186 283.007C502.18 284.846 501.33 286.767 500.647 288.749C498.637 293.909 496.143 298.867 493.197 303.557C491.778 305.826 490.188 308.249 490.511 310.887C490.737 312.121 491.173 313.307 491.8 314.393L496.059 322.847C496.992 324.535 497.722 326.327 498.234 328.186C498.603 329.791 498.637 331.453 498.853 333.087C499.523 338.273 501.959 343.493 500.517 348.519C500.392 348.951 499.949 349.473 499.602 349.172C501.011 351.799 502.141 354.443 502.033 357.421C501.976 358.981 501.499 360.61 502.073 362.062C502.317 362.669 502.743 363.237 502.737 363.889C502.737 364.32 502.538 364.723 502.493 365.143C502.374 366.34 503.475 367.339 504.617 367.719C505.758 368.099 507.001 368.07 508.154 368.417C510.369 369.08 511.953 370.987 513.833 372.309C515.761 373.636 518.034 374.375 520.374 374.436C520.708 374.472 521.045 374.404 521.34 374.243C521.506 374.097 521.64 373.918 521.732 373.716C521.824 373.515 521.873 373.296 521.873 373.074C521.976 372.015 521.817 370.946 521.409 369.963C521.001 368.979 520.357 368.111 519.534 367.435C519.173 367.209 518.874 366.897 518.665 366.527C518.559 366.2 518.532 365.852 518.586 365.512C518.928 360.861 518.845 356.19 518.336 351.555C518.106 350.086 518.032 348.597 518.114 347.112C518.233 345.876 518.608 344.65 518.472 343.419C518.336 342.188 517.705 341.064 517.336 339.879C516.678 337.768 516.859 335.499 516.768 333.292C516.655 329.456 515.775 325.689 514.9 321.945C514.554 320.475 514.173 318.938 513.134 317.848C512.248 316.924 510.817 316.038 511.152 314.807C511.338 314.354 511.614 313.942 511.964 313.599C512.376 313.083 512.677 312.489 512.851 311.853C513.025 311.217 513.067 310.553 512.975 309.9C513.349 309.995 513.744 309.958 514.093 309.794C514.442 309.631 514.723 309.351 514.889 309.003C521.805 305.741 527.381 299.216 529.869 291.983C530.015 291.446 530.241 290.933 530.539 290.462C531.18 289.566 532.293 289.18 533.281 288.686C536.382 287.126 538.523 284.204 540.487 281.345C541.623 279.688 542.759 277.975 543.27 276.023C543.539 274.761 543.666 273.473 543.65 272.182L543.826 265.516C543.865 265.077 543.823 264.634 543.701 264.211C543.533 263.815 543.288 263.456 542.98 263.156C541.092 261.16 538.611 259.824 535.905 259.343C534.088 259.02 532.231 259.082 530.391 258.929C526.825 258.634 523.304 257.527 519.738 257.794C514.134 258.208 509.142 262.089 506.502 267.048C505.576 268.795 504.599 270.316 502.612 270.35Z" fill="#464353"/>
<path d="M471.494 227.004C471.57 228.033 471.43 229.066 471.085 230.039C470.648 230.969 469.552 231.696 468.592 231.316C468.882 230.663 468.115 229.92 467.4 229.999C467.048 230.08 466.721 230.246 466.447 230.481C466.173 230.716 465.96 231.014 465.827 231.35C465.353 232.302 465.193 233.381 465.373 234.43C465.6 235.735 466.355 236.989 466.156 238.3C465.997 239.389 465.197 240.473 465.622 241.483C465.899 241.944 466.246 242.359 466.65 242.714C467.211 243.404 467.486 244.283 467.417 245.17C467.349 246.057 466.942 246.883 466.281 247.479L477.025 247.695C476.633 249.488 477.439 251.32 478.359 252.915C480.936 257.298 484.494 261.025 488.754 263.804C493.014 266.583 497.86 268.338 502.913 268.931C502.64 269.09 502.405 269.308 502.227 269.569C502.048 269.83 501.93 270.128 501.881 270.44C501.831 270.752 501.852 271.071 501.941 271.375C502.03 271.678 502.186 271.957 502.396 272.193C503.271 273.061 504.753 272.954 505.849 272.392C506.945 271.83 507.802 270.9 508.802 270.179C510.566 268.93 512.718 268.351 514.872 268.545C516.218 268.676 517.524 269.113 518.875 269.181C522.85 269.391 526.257 266.531 530.084 265.362C532.873 264.506 536.035 264.506 538.375 262.764C539.386 262.015 540.215 260.784 539.92 259.57C539.675 258.872 539.288 258.232 538.784 257.692C537.438 255.95 536.643 253.856 535.678 251.876C533.765 247.956 531.132 244.43 527.915 241.483C525.487 239.362 522.914 237.413 520.215 235.65C519.563 235.169 518.867 234.749 518.137 234.396C517.194 233.982 516.149 233.784 515.298 233.262C514.037 232.467 513.31 231.066 512.339 229.937C510.21 227.452 506.939 226.311 504.316 224.36C502.555 223.049 500.999 221.324 498.898 220.695C497.876 220.383 496.792 220.36 495.769 220.054C493.447 219.35 491.755 217.291 489.478 216.457C487.678 215.798 485.69 215.969 483.799 215.736C481.668 215.473 479.632 214.699 477.865 213.478C477.296 213.015 476.658 212.643 475.974 212.377C473.095 211.504 472.863 216.859 472.567 218.715C472.187 221.472 471.494 224.212 471.494 227.004Z" fill="#240051"/>
<path d="M474.299 244.966C474.782 250.197 470.83 255.264 471.982 260.387C472.227 261.476 472.698 262.514 472.868 263.621C473.351 266.656 471.534 269.533 469.802 272.074L454.924 293.889C454.327 294.847 453.614 295.727 452.801 296.51C449.961 299.035 445.691 298.78 441.955 299.528C439.33 300.067 436.851 301.162 434.686 302.74C434.589 302.815 434.525 302.925 434.508 303.047C434.491 303.169 434.522 303.293 434.595 303.392C435.212 304.231 436.03 304.903 436.973 305.346C437.916 305.789 438.955 305.989 439.996 305.928C440.387 306.439 439.996 307.199 439.456 307.568C438.661 308.135 437.56 308.266 437.401 309.622C437.347 310.093 437.442 310.569 437.673 310.983C438.275 311.898 439.206 312.544 440.274 312.787C445.424 314.365 450.989 311.596 454.845 307.835C458.701 304.073 461.466 299.324 465.248 295.5C467.343 293.378 469.722 291.569 471.88 289.515C476.185 285.413 479.535 280.437 482.76 275.45C483.731 273.947 484.714 272.403 485.117 270.662C485.52 268.92 485.333 267.155 485.792 265.47C486.394 263.263 488.013 261.499 489.359 259.649C491.999 256.018 493.765 251.576 493.413 247.099C493.061 242.623 490.29 238.209 486.065 236.688C484.755 236.168 483.312 236.081 481.948 236.439C480.216 236.972 478.939 238.402 477.757 239.775L474.918 243.031C474.227 243.753 473.685 244.603 473.323 245.534C473.139 246.002 473.096 246.514 473.196 247.007C473.297 247.5 473.538 247.954 473.89 248.314" fill="#FBBEBE"/>
<path d="M481.84 223.509C479.887 223.622 477.735 223.815 476.355 225.211C475.776 225.851 475.308 226.584 474.969 227.378C473.629 230.107 472.323 232.961 472.227 236.002C472.147 238.43 472.851 240.807 473.22 243.207C473.527 245.204 472.749 247.241 472.601 249.261C475.026 248.517 478.229 247.508 480.426 246.254C481.925 245.397 483.373 244.421 485.009 243.876C487.343 243.099 491.255 244.444 493.475 245.522C493.595 243.967 492.425 241.255 492.55 239.695C492.567 239.038 492.684 238.388 492.896 237.766C493.228 237.108 493.622 236.483 494.072 235.9C494.917 234.527 495.305 232.922 495.182 231.314C495.059 229.707 494.429 228.18 493.384 226.952C491.414 224.74 488.331 223.911 485.389 223.548C483.537 223.334 481.67 223.269 479.807 223.355" fill="#240051"/>
</g>
<defs>
<linearGradient id="paint0_linear_8_6288" x1="401.024" y1="309.877" x2="401.024" y2="32.6343" gradientUnits="userSpaceOnUse">
<stop stop-color="#808080" stop-opacity="0.25"/>
<stop offset="0.54" stop-color="#808080" stop-opacity="0.12"/>
<stop offset="1" stop-color="#808080" stop-opacity="0.1"/>
</linearGradient>
<clipPath id="clip0_8_6288">
<rect width="596" height="385" fill="white"/>
</clipPath>
</defs>
</svg>
