<svg width="596" height="432" viewBox="0 0 596 432" fill="none" xmlns="http://www.w3.org/2000/svg">
<g clip-path="url(#clip0_8_6237)">
<path d="M214.254 118.936C208.706 124.692 202.025 129.236 194.631 132.283C187.238 135.329 179.292 136.812 171.296 136.638C163.3 136.463 155.427 134.636 148.173 131.27C140.919 127.903 134.443 123.072 129.152 117.081L0 239.203L181.613 430.871L354.723 267.183L214.254 118.936Z" fill="#F2F2F2"/>
<path d="M172.452 124.578C179.268 124.587 186.015 123.217 192.287 120.552C198.559 117.887 204.227 113.982 208.948 109.072L172.935 71.0645L134.457 107.448C139.207 112.838 145.053 117.154 151.605 120.108C158.157 123.062 165.264 124.586 172.452 124.578Z" fill="#F2F2F2"/>
<path d="M455.956 180.163C455.968 192.101 453.623 203.924 449.055 214.956C444.488 225.987 437.787 236.01 429.337 244.452C420.887 252.893 410.853 259.587 399.81 264.15C388.768 268.712 376.932 271.055 364.982 271.043C364.464 271.043 363.945 271.037 363.427 271.026C361.244 270.993 359.088 270.883 356.943 270.696C339.361 269.138 322.612 262.506 308.738 251.605C294.863 240.705 284.463 226.009 278.803 209.307C273.144 192.605 272.47 174.619 276.865 157.542C281.259 140.464 290.531 125.032 303.552 113.127C316.572 101.222 332.778 93.3573 350.195 90.4921C367.611 87.6269 385.486 89.8847 401.64 96.9904C417.795 104.096 431.531 115.743 441.175 130.511C450.819 145.279 455.955 162.531 455.956 180.163Z" fill="#240051"/>
<path opacity="0.1" d="M417.703 147.276C423.406 137.229 427.128 126.184 428.668 114.737C416.568 103.084 401.473 95.0074 385.058 91.403C368.643 87.7987 351.549 88.8075 335.672 94.3175C319.796 99.8276 305.758 109.623 295.116 122.618C284.474 135.613 277.643 151.3 275.382 167.937C290.323 182.366 309.775 191.227 330.478 193.035C332.623 193.222 334.779 193.333 336.962 193.366C337.48 193.377 337.999 193.382 338.517 193.382C354.622 193.399 370.443 189.139 384.357 181.037C398.272 172.935 409.78 161.284 417.703 147.276Z" fill="black"/>
<path d="M405.231 268.839H259.122V431.871H405.231V268.839Z" fill="#2F2E41"/>
<path opacity="0.1" d="M452.025 214.092C446.37 227.353 437.641 239.083 426.559 248.314C415.477 257.545 402.358 264.014 388.282 267.187H408.539V430.219H273.777L349.406 299.359L366.735 269.374L367.998 267.187L425.356 167.947L452.025 214.092Z" fill="black"/>
<path d="M444.101 169.049L520.051 300.46L596 431.872H444.101H292.203L368.152 300.46L444.101 169.049Z" fill="#3F3D56"/>
<path d="M596 430.77H20.3848V431.871H596V430.77Z" fill="#2F2E41"/>
<path d="M94.5602 405.837L93.554 414.214L87.8513 416.895L81.4776 414.884L77.117 416.895L75.7755 409.187L83.4906 400.475L94.5602 405.837Z" fill="#9F616A"/>
<path d="M90.5348 412.203C90.5348 412.203 95.7355 406.146 95.8187 409.174C95.9019 412.203 107.307 422.591 107.307 422.591C107.307 422.591 125.085 427.952 111.332 431.303C97.5792 434.654 67.3893 424.936 66.3829 422.926C65.3766 420.915 74.769 405.501 75.7753 406.841C76.7817 408.182 81.8133 412.873 90.5348 412.203Z" fill="#2F2E41"/>
<path d="M103.282 312.68C103.282 312.68 105.294 328.429 103.282 330.775C101.269 333.12 102.275 337.812 103.282 338.482C104.288 339.152 101.94 341.833 100.263 343.173C98.5855 344.514 96.2374 350.545 96.2374 350.545C96.2374 350.545 87.1804 374.337 87.1804 376.683C87.1804 379.029 83.1551 384.055 83.4906 385.73C83.826 387.406 81.1425 392.767 81.4779 393.773C81.8134 394.778 77.1171 403.825 78.4589 405.166C79.8007 406.506 98.2501 411.198 97.2437 408.182C96.2374 405.166 95.5665 401.48 96.2374 401.48C96.9083 401.48 99.9273 397.794 99.2564 396.453C98.5855 395.113 119.383 359.928 119.383 359.928L103.282 312.68Z" fill="#2F2E41"/>
<path opacity="0.1" d="M90.5348 412.203C90.5348 412.203 95.7355 406.146 95.8187 409.174C95.9019 412.203 107.307 422.591 107.307 422.591C107.307 422.591 125.085 427.952 111.332 431.303C97.5792 434.654 67.3893 424.936 66.3829 422.926C65.3766 420.915 74.769 405.501 75.7753 406.841C76.7817 408.182 81.8133 412.873 90.5348 412.203Z" fill="black"/>
<path opacity="0.1" d="M103.282 312.68C103.282 312.68 105.294 328.429 103.282 330.775C101.269 333.12 102.275 337.812 103.282 338.482C104.288 339.152 101.94 341.833 100.263 343.173C98.5855 344.514 96.2374 350.545 96.2374 350.545C96.2374 350.545 87.1804 374.337 87.1804 376.683C87.1804 379.029 83.1551 384.055 83.4906 385.73C83.826 387.406 81.1425 392.767 81.4779 393.773C81.8134 394.778 77.1171 403.825 78.4589 405.166C79.8007 406.506 98.2501 411.198 97.2437 408.182C96.2374 405.166 95.5665 401.48 96.2374 401.48C96.9083 401.48 99.9273 397.794 99.2564 396.453C98.5855 395.113 119.383 359.928 119.383 359.928L103.282 312.68Z" fill="black"/>
<path d="M137.497 401.676L141.187 411.059L139.51 424.127L128.775 423.458L122.737 418.096V406.703L137.497 401.676Z" fill="#9F616A"/>
<path d="M135.484 413.069C135.484 413.069 139.174 401.006 141.187 404.357C142.462 406.509 143.583 408.748 144.541 411.059C144.541 411.059 160.978 421.782 165.339 421.782C169.699 421.782 173.725 427.143 168.022 429.154C162.32 431.164 118.712 433.845 118.041 429.154C117.37 424.462 118.712 409.383 120.725 411.059C122.737 412.734 133.136 416.42 135.484 413.069Z" fill="#2F2E41"/>
<path d="M143.87 264.623C143.87 264.623 158.656 274.66 159.326 276C159.997 277.34 168.576 281.462 161.532 284.812C154.488 288.163 135.82 266.968 135.82 266.968L143.87 264.623Z" fill="#9F616A"/>
<path d="M136.491 245.187C136.491 245.187 147.225 265.963 145.212 266.633C143.199 267.303 135.149 271.324 135.149 271.324L131.459 250.213L136.491 245.187Z" fill="#575A88"/>
<path opacity="0.1" d="M136.491 245.187C136.491 245.187 147.225 265.963 145.212 266.633C143.199 267.303 135.149 271.324 135.149 271.324L131.459 250.213L136.491 245.187Z" fill="black"/>
<path d="M135.82 262.612C135.82 262.612 138.168 280.037 137.161 283.723C136.155 287.409 137.832 342.7 136.49 345.715C135.149 348.731 134.142 368.167 134.142 370.512C134.142 372.858 136.826 391.958 137.497 393.634C138.168 395.309 140.18 401.006 139.174 403.687C138.168 406.368 124.415 413.069 122.402 410.724C120.389 408.378 122.066 401.006 120.389 400.671C118.712 400.336 116.699 384.586 116.699 384.586L105.63 322.929C105.63 322.929 84.8323 271.324 89.5285 266.298C94.2247 261.271 135.82 262.612 135.82 262.612Z" fill="#2F2E41"/>
<path d="M123.408 143.653C132.486 143.653 139.845 136.302 139.845 127.234C139.845 118.165 132.486 110.814 123.408 110.814C114.331 110.814 106.972 118.165 106.972 127.234C106.972 136.302 114.331 143.653 123.408 143.653Z" fill="#9F616A"/>
<path d="M129.446 140.637C129.446 140.637 124.079 154.711 124.75 157.727C125.421 160.743 108.984 152.365 108.984 152.365C108.984 152.365 109.991 135.946 108.984 131.59C107.978 127.233 129.446 140.637 129.446 140.637Z" fill="#9F616A"/>
<path d="M84.3762 232.322C84.4499 235.134 84.4969 236.809 84.4969 236.809C84.4969 236.809 83.4906 252.224 85.1678 257.25C86.845 262.277 86.845 265.963 87.8513 269.314C88.1465 270.289 92.1618 270.811 97.8006 271.043C102.973 271.254 109.511 271.224 115.787 271.079C126.179 270.838 135.867 270.282 137.497 269.984C141.187 269.314 136.826 263.617 138.168 260.601C139.51 257.585 135.82 219.049 135.82 219.049C135.82 219.049 136.155 197.268 134.478 188.891C132.801 180.513 126.427 167.11 125.086 165.434C123.744 163.759 124.75 162.753 127.769 160.743C130.788 158.732 127.769 151.025 127.769 151.025C122.067 146.334 107.642 145.664 107.642 145.664C107.642 145.664 85.5032 168.45 84.1615 173.141C83.3497 175.976 83.6415 198.622 83.9971 216.107C84.1346 222.685 84.2789 228.536 84.3762 232.322Z" fill="#575A88"/>
<path d="M112.674 274.005C112.674 274.005 125.421 300.142 115.358 301.818C105.294 303.493 100.263 278.026 100.263 278.026L112.674 274.005Z" fill="#9F616A"/>
<path d="M138.777 118.911C139.358 116.095 137.204 113.462 134.935 111.693C129.993 107.864 123.913 105.793 117.66 105.808C113.261 105.832 108.721 106.995 105.396 109.872C101.518 113.228 99.7487 118.61 100.074 123.726C100.4 128.841 102.627 133.693 105.631 137.848C107.073 139.843 109.388 141.908 111.692 141.038C112.593 140.617 113.367 139.964 113.934 139.147C115.411 137.315 116.699 135.338 117.777 133.247C118.601 131.646 119.316 129.959 120.484 128.589C121.653 127.219 123.409 126.188 125.194 126.434C126.668 126.637 128.115 127.674 129.521 127.187C131.086 126.645 131.464 124.647 131.588 122.997C131.725 121.189 131.628 119.094 132.131 117.385C132.68 117.678 138.507 120.26 138.777 118.911Z" fill="#2F2E41"/>
<path opacity="0.1" d="M84.3761 232.323C88.133 245.857 96.7506 268.667 97.2436 269.649C97.3678 269.9 97.5623 270.393 97.8004 271.043C102.973 271.254 109.511 271.224 115.787 271.08C114.814 268.54 113.68 266.087 113.68 265.293C113.68 263.617 105.63 220.39 105.63 220.39C105.63 220.39 112.003 201.29 117.706 185.205C123.408 169.12 100.766 172.304 100.766 172.304C88.6899 169.288 86.5095 174.482 86.5095 174.482C86.5095 174.482 85.4462 202.73 83.997 216.107C83.6246 219.535 83.2289 221.985 82.8196 222.736C82.2829 223.717 83.0075 227.41 84.3761 232.323Z" fill="black"/>
<path d="M105.63 161.413C105.63 161.413 121.06 167.78 115.358 183.864C109.655 199.949 103.282 219.049 103.282 219.049C103.282 219.049 111.332 262.277 111.332 263.952C111.332 265.628 116.364 274.675 114.351 276.351C112.339 278.026 98.9209 281.377 98.5855 279.702C98.25 278.026 95.5665 269.649 94.8956 268.308C94.2247 266.968 78.4589 225.081 80.4716 221.395C81.9527 218.683 83.2521 193.831 83.8352 180.894C83.9699 177.203 85.0644 173.61 87.0109 170.47C88.9574 167.33 91.6888 164.75 94.9364 162.985C98.0639 161.329 101.705 160.433 105.63 161.413Z" fill="#575A88"/>
<path d="M167.597 259.476H147.748V279.304H167.597V259.476Z" fill="#240051"/>
<path d="M157.672 259.476C161.022 259.476 163.737 256.764 163.737 253.418C163.737 250.071 161.022 247.359 157.672 247.359C154.323 247.359 151.607 250.071 151.607 253.418C151.607 256.764 154.323 259.476 157.672 259.476Z" fill="#3F3D56"/>
<path d="M392.08 60.7683C408.619 60.7683 422.027 47.3745 422.027 30.8524C422.027 14.3303 408.619 0.936523 392.08 0.936523C375.54 0.936523 362.133 14.3303 362.133 30.8524C362.133 47.3745 375.54 60.7683 392.08 60.7683Z" fill="#FF6584"/>
<path d="M391.998 51.2859C391.998 73.8574 378.566 81.7385 361.997 81.7385C345.427 81.7385 331.995 73.8574 331.995 51.2859C331.995 28.7145 361.997 0 361.997 0C361.997 0 391.998 28.7144 391.998 51.2859Z" fill="#F2F2F2"/>
<path d="M360.904 78.2856L361.211 59.3954L373.998 36.0256L361.259 56.4321L361.397 47.9385L370.21 31.0306L361.434 45.6908L361.682 30.4142L371.12 16.9531L361.721 28.0117L361.876 0L360.901 37.0826L360.981 35.5525L351.386 20.8813L360.828 38.4893L359.933 55.5509L359.907 55.0976L348.845 39.658L359.873 56.6976L359.761 58.8314L359.741 58.8633L359.751 59.0385L357.482 102.325H360.513L360.877 79.9666L371.877 62.9688L360.904 78.2856Z" fill="#3F3D56"/>
<path d="M464.291 85.0232C457.122 106.428 441.88 109.645 426.167 104.393C410.453 99.1413 400.218 87.41 407.387 66.0048C414.556 44.5996 452.128 26.8779 452.128 26.8779C452.128 26.8779 471.46 63.6179 464.291 85.0232Z" fill="#F2F2F2"/>
<path d="M426.227 100.773L432.518 82.9558L452.067 64.8461L433.505 80.1606L436.334 72.1495L450.062 58.9086L437.082 70.0295L442.17 55.621L455.395 45.8468L442.97 53.3551L452.014 26.8398L439.311 61.6973L439.873 60.2718L435.434 43.3176L438.794 63.0081L432.527 78.9048L432.646 78.467L427.06 60.3192L432.106 79.9734L431.323 81.9611L431.293 81.9854L431.247 82.1545L415.347 122.485L418.221 123.446L425.667 102.358L441.498 89.725L426.227 100.773Z" fill="#3F3D56"/>
<path d="M315.37 67.7994C323.496 88.8607 313.8 101.04 298.339 106.993C282.878 112.946 267.507 110.418 259.381 89.3567C251.255 68.2955 268.912 30.7236 268.912 30.7236C268.912 30.7236 307.244 46.7382 315.37 67.7994Z" fill="#F2F2F2"/>
<path d="M296.076 104.164L289.562 86.4271L293.081 60.027L288.54 83.6451L285.611 75.6698L287.748 56.7267L284.836 73.5592L279.568 59.2157L283.528 43.265L278.74 56.9602L268.8 30.7666L281.24 65.7188L280.764 64.2625L266.529 54.0196L281.678 67.0577L286.986 83.2987L286.798 82.8856L270.919 72.4532L287.343 84.3903L288.007 86.4216L288 86.4585L288.071 86.6188L301.538 127.823L304.366 126.735L296.656 105.742L300.801 85.9297L296.076 104.164Z" fill="#3F3D56"/>
<path d="M251.652 246.753C249.793 249.715 247.381 249.646 245.207 248.284C243.032 246.922 241.918 244.783 243.777 241.821C245.636 238.859 251.939 237.556 251.939 237.556C251.939 237.556 253.511 243.791 251.652 246.753Z" fill="#240051"/>
<path d="M473.369 157.971C473.713 161.45 471.763 162.869 469.208 163.121C466.654 163.373 464.464 162.363 464.12 158.883C463.776 155.404 467.963 150.521 467.963 150.521C467.963 150.521 473.025 154.491 473.369 157.971Z" fill="#240051"/>
<path d="M241.763 183.663C239.904 186.625 237.492 186.555 235.318 185.193C233.143 183.832 232.029 181.693 233.888 178.731C235.747 175.769 242.05 174.466 242.05 174.466C242.05 174.466 243.622 180.7 241.763 183.663Z" fill="#240051"/>
</g>
<defs>
<clipPath id="clip0_8_6237">
<rect width="596" height="432" fill="white"/>
</clipPath>
</defs>
</svg>
