<svg width="596" height="388" viewBox="0 0 596 388" fill="none" xmlns="http://www.w3.org/2000/svg">
<g clip-path="url(#clip0_8_6413)">
<path d="M514.434 388C559.482 388 596 384.384 596 379.924C596 375.464 559.482 371.848 514.434 371.848C469.386 371.848 432.868 375.464 432.868 379.924C432.868 384.384 469.386 388 514.434 388Z" fill="#E6E6E6"/>
<path d="M50.5187 380.238C66.6521 380.238 79.7308 378.431 79.7308 376.201C79.7308 373.97 66.6521 372.163 50.5187 372.163C34.3852 372.163 21.3065 373.97 21.3065 376.201C21.3065 378.431 34.3852 380.238 50.5187 380.238Z" fill="#E6E6E6"/>
<path d="M382.356 0H0V191.634H382.356V0Z" fill="#E6E6E6"/>
<path d="M364.799 15.5903H17.5572V176.043H364.799V15.5903Z" fill="white"/>
<path d="M18.0167 176.502L17.0971 175.584L63.7259 129.003L78.3573 143.619L104.042 117.959L135.58 149.465L189.227 95.8724L213.612 120.233L266.934 66.9648L296.846 96.8469L351.659 42.0898L352.578 43.0085L296.846 98.6841L266.934 68.8021L213.612 122.07L189.227 97.7096L135.58 151.302L104.042 119.796L78.3573 145.456L63.7259 130.84L18.0167 176.502Z" fill="#240051"/>
<path d="M267.259 76.6536C271.569 76.6536 275.062 73.1635 275.062 68.8583C275.062 64.5531 271.569 61.063 267.259 61.063C262.949 61.063 259.456 64.5531 259.456 68.8583C259.456 73.1635 262.949 76.6536 267.259 76.6536Z" fill="#240051"/>
<path d="M104.693 127.323C109.002 127.323 112.496 123.833 112.496 119.528C112.496 115.222 109.002 111.732 104.693 111.732C100.383 111.732 96.8895 115.222 96.8895 119.528C96.8895 123.833 100.383 127.323 104.693 127.323Z" fill="#240051"/>
<path d="M213.937 127.972C218.247 127.972 221.741 124.482 221.741 120.177C221.741 115.872 218.247 112.382 213.937 112.382C209.628 112.382 206.134 115.872 206.134 120.177C206.134 124.482 209.628 127.972 213.937 127.972Z" fill="#240051"/>
<path d="M137.856 157.205C142.166 157.205 145.659 153.715 145.659 149.41C145.659 145.104 142.166 141.614 137.856 141.614C133.547 141.614 130.053 145.104 130.053 149.41C130.053 153.715 133.547 157.205 137.856 157.205Z" fill="#240051"/>
<path d="M187.927 105.886C192.236 105.886 195.73 102.396 195.73 98.0907C195.73 93.7855 192.236 90.2954 187.927 90.2954C183.617 90.2954 180.124 93.7855 180.124 98.0907C180.124 102.396 183.617 105.886 187.927 105.886Z" fill="#240051"/>
<path d="M296.521 105.886C300.831 105.886 304.324 102.396 304.324 98.0907C304.324 93.7855 300.831 90.2954 296.521 90.2954C292.211 90.2954 288.718 93.7855 288.718 98.0907C288.718 102.396 292.211 105.886 296.521 105.886Z" fill="#240051"/>
<path d="M41.341 356.352C44.5073 368.044 55.3523 375.286 55.3523 375.286C55.3523 375.286 61.0639 363.57 57.8976 351.878C54.7314 340.185 43.8864 332.944 43.8864 332.944C43.8864 332.944 38.1748 344.66 41.341 356.352Z" fill="#E6E6E6"/>
<path d="M45.9935 353.839C54.6817 362.288 55.7429 375.276 55.7429 375.276C55.7429 375.276 42.7178 374.566 34.0296 366.117C25.3415 357.668 24.2803 344.68 24.2803 344.68C24.2803 344.68 37.3054 345.39 45.9935 353.839Z" fill="#240051"/>
<path d="M487.053 90.3127L492.03 139.476H532.985L531.017 64.748C531.017 48.6634 519.886 34.5947 503.786 34.5947C487.685 34.5947 477.211 48.008 477.211 64.0925L474.586 139.476H481.264L487.053 90.3127Z" fill="#2F2E41"/>
<path d="M511.532 348.123C511.532 348.123 509.765 359.307 506.818 361.073C503.872 362.839 522.139 366.959 522.139 366.959L525.085 349.3L511.532 348.123Z" fill="#FBBEBE"/>
<path d="M533.334 220.389L539.816 228.041L536.869 254.53L534.512 306.919C534.512 306.919 539.226 352.244 534.512 353.421C529.799 354.598 508.586 354.01 509.175 351.066C509.765 348.123 510.354 345.769 511.532 341.648C512.711 337.528 510.354 322.812 510.354 322.812L513.3 306.33L502.694 235.105L533.334 220.389Z" fill="#2F2E41"/>
<path d="M512.122 359.307C512.122 359.307 505.64 358.13 505.051 359.307C504.461 360.485 493.266 372.846 491.498 372.846C489.731 372.846 476.767 384.619 490.32 385.207C503.872 385.796 526.263 375.201 526.263 375.201C526.263 375.201 522.968 360.222 523.143 360.942C523.317 361.662 512.122 362.251 512.122 359.307Z" fill="#2F2E41"/>
<path d="M505.051 332.23C505.051 332.23 521.549 350.478 522.139 352.244C522.728 354.01 531.566 352.244 531.566 352.244L535.102 340.471L532.156 336.351L515.657 322.812L505.051 332.23Z" fill="#FBBEBE"/>
<path d="M528.62 345.769L520.076 353.803C520.076 353.803 530.977 370.492 530.977 372.258C530.977 374.023 531.566 388.739 537.459 386.385C543.351 384.03 543.94 360.485 543.94 360.485C543.94 360.485 543.351 336.351 539.816 334.585C536.28 332.819 528.531 333.377 528.531 333.377C528.531 333.377 533.334 345.18 528.62 345.769Z" fill="#2F2E41"/>
<path d="M479.714 168C479.714 168 476.767 177.418 476.178 179.772C475.589 182.127 472.054 188.602 472.054 198.609C472.054 208.616 473.232 220.388 472.054 221.566C470.875 222.743 452.02 288.671 460.269 295.734C468.518 302.798 495.623 326.343 497.391 329.287C499.158 332.23 499.748 339.294 503.283 338.116C506.818 336.939 520.371 325.166 520.96 322.812C521.549 320.457 513.3 316.337 513.3 316.337C513.3 316.337 496.801 292.202 492.677 292.791C488.552 293.38 489.141 289.848 489.731 288.082C490.32 286.316 491.498 285.139 489.731 285.139C487.963 285.139 489.141 280.43 489.731 278.075C490.32 275.721 503.872 243.934 503.872 243.934L539.816 228.041C539.816 228.041 538.048 185.07 525.085 173.297L522.139 166.234C522.139 166.234 489.141 163.879 479.714 168Z" fill="#2F2E41"/>
<path d="M494.444 74.9947C494.444 74.9947 497.391 95.597 490.32 96.7743C483.249 97.9516 477.357 97.3629 477.357 97.9516C477.357 98.5402 495.034 116.788 495.034 116.788L511.532 115.611L526.263 99.7175C526.263 99.7175 512.711 97.3629 512.711 89.122C512.711 80.881 512.122 74.9946 512.122 74.9946L494.444 74.9947Z" fill="#FFB8B8"/>
<path d="M503.578 83.5303C513.666 83.5303 521.844 75.3605 521.844 65.2825C521.844 55.2045 513.666 47.0347 503.578 47.0347C493.489 47.0347 485.311 55.2045 485.311 65.2825C485.311 75.3605 493.489 83.5303 503.578 83.5303Z" fill="#FFB8B8"/>
<path d="M492.917 95.2759C492.917 95.2759 464.393 97.9517 462.626 105.604C460.858 113.256 474.41 160.936 476.178 165.057C477.946 169.177 477.357 172.12 477.357 172.12C480.023 170.128 483.085 168.73 486.338 168.019C489.59 167.308 492.957 167.302 496.212 168C507.408 170.354 523.317 169.177 523.317 169.177C523.317 169.177 528.62 147.397 529.799 145.043C530.977 142.688 535.691 129.738 535.691 126.206C535.691 122.675 542.762 107.959 542.762 107.959C542.762 107.959 539.226 97.3631 526.263 97.9518C526.263 97.9518 520.609 95.4235 519.017 97.2763C517.425 99.129 508.586 107.37 497.391 103.838C486.195 100.306 492.917 95.2759 492.917 95.2759Z" fill="#E6E6E6"/>
<path d="M531.566 105.016L542.762 107.959C542.762 107.959 551.011 137.979 551.6 138.568C552.19 139.157 552.779 142.689 552.779 142.689C552.779 142.689 552.779 143.277 553.957 145.043C555.136 146.809 556.903 145.632 555.725 147.986C554.547 150.341 552.779 149.164 553.957 151.518C555.136 153.873 554.546 160.348 554.546 160.348C554.546 160.348 551.6 149.164 540.994 152.107L533.923 120.32L531.566 105.016Z" fill="#E6E6E6"/>
<path d="M535.267 110.65L535.226 110.785L515.818 171.865L503.079 169.038L489.302 165.984L508.751 102.998L535.267 110.65Z" fill="#240051"/>
<path d="M474.025 105.016L462.83 107.959C462.83 107.959 454.58 137.979 453.991 138.568C453.402 139.157 452.813 142.689 452.813 142.689C452.813 142.689 452.813 143.277 451.634 145.043C450.456 146.809 448.688 145.632 449.867 147.986C451.045 150.341 452.813 149.164 451.634 151.518C450.456 153.873 451.045 160.348 451.045 160.348C451.045 160.348 453.991 149.164 464.597 152.107L471.668 120.32L474.025 105.016Z" fill="#E6E6E6"/>
<path d="M454.58 150.34L450.899 156.486C450.899 156.486 449.277 168 457.527 168C465.776 168 477.561 156.815 477.561 156.815C477.561 156.815 483.453 154.461 486.988 155.05C490.524 155.638 509.969 155.05 501.719 145.043C493.47 135.036 479.328 145.043 479.328 145.043L464.597 152.106L456.937 147.986L454.58 150.34Z" fill="#FFB8B8"/>
<path d="M459.589 142.394L465.481 151.812C465.481 151.812 451.929 153.578 450.75 156.521C449.572 159.465 456.054 141.217 456.054 141.217L459.589 142.394Z" fill="#E6E6E6"/>
<path d="M488.366 58.8481C500.232 52.4571 505.107 52.7277 519.862 58.8481L523.799 49.2658C523.797 47.4615 523.079 45.7318 521.802 44.4559C520.524 43.1801 518.793 42.4625 516.987 42.4604H490.585C488.779 42.4625 487.047 43.1801 485.77 44.4559C484.493 45.7318 483.775 47.4615 483.773 49.2658L488.366 58.8481Z" fill="#2F2E41"/>
<path opacity="0.2" d="M535.226 110.785L515.818 171.865L503.079 169.039L522.224 107.036L535.226 110.785Z" fill="black"/>
<path d="M526.263 107.035L506.818 170.019L533.334 175.905L552.779 114.687L526.263 107.035Z" fill="#240051"/>
<path d="M551.011 150.34L554.692 156.486C554.692 156.486 556.314 168 548.065 168C539.816 168 528.031 156.815 528.031 156.815C528.031 156.815 522.139 154.461 518.603 155.05C515.068 155.638 495.623 155.05 503.872 145.043C512.122 135.036 526.263 145.043 526.263 145.043L540.994 152.106L548.654 147.986L551.011 150.34Z" fill="#FFB8B8"/>
<path d="M546.003 142.394L540.11 151.812C540.11 151.812 553.663 153.578 554.841 156.521C556.02 159.465 549.538 141.217 549.538 141.217L546.003 142.394Z" fill="#E6E6E6"/>
</g>
<defs>
<clipPath id="clip0_8_6413">
<rect width="596" height="388" fill="white"/>
</clipPath>
</defs>
</svg>
