<svg width="28" height="31" viewBox="0 0 28 31" fill="none" xmlns="http://www.w3.org/2000/svg">
<path d="M27.3333 31.0002L20.3333 24.3335L21.1733 27.0002H3.99996C3.1159 27.0002 2.26806 26.649 1.64294 26.0239C1.01782 25.3987 0.666626 24.5509 0.666626 23.6668V3.66683C0.666626 2.78277 1.01782 1.93493 1.64294 1.30981C2.26806 0.684686 3.1159 0.333496 3.99996 0.333496H24C24.884 0.333496 25.7319 0.684686 26.357 1.30981C26.9821 1.93493 27.3333 2.78277 27.3333 3.66683V31.0002ZM14 8.06683C10.4266 8.06683 7.91996 9.60016 7.91996 9.60016C9.29329 8.3735 11.6933 7.66683 11.6933 7.66683L11.4666 7.44016C9.21329 7.48016 7.17329 9.04016 7.17329 9.04016C4.87996 13.8268 5.02663 17.9602 5.02663 17.9602C6.89329 20.3735 9.66663 20.2002 9.66663 20.2002L10.6133 19.0002C8.94663 18.6402 7.89329 17.1602 7.89329 17.1602C7.89329 17.1602 10.4 18.8668 14 18.8668C17.6 18.8668 20.1066 17.1602 20.1066 17.1602C20.1066 17.1602 19.0533 18.6402 17.3866 19.0002L18.3333 20.2002C18.3333 20.2002 21.1066 20.3735 22.9733 17.9602C22.9733 17.9602 23.12 13.8268 20.8266 9.04016C20.8266 9.04016 18.7866 7.48016 16.5333 7.44016L16.3066 7.66683C16.3066 7.66683 18.7066 8.3735 20.08 9.60016C20.08 9.60016 17.5733 8.06683 14 8.06683ZM11.24 13.1202C12.1066 13.1202 12.8133 13.8802 12.8 14.8135C12.8 15.7335 12.1066 16.5068 11.24 16.5068C10.3866 16.5068 9.69329 15.7335 9.69329 14.8135C9.69329 13.8802 10.3733 13.1202 11.24 13.1202ZM16.8 13.1202C17.6666 13.1202 18.36 13.8802 18.36 14.8135C18.36 15.7335 17.6666 16.5068 16.8 16.5068C15.9466 16.5068 15.2533 15.7335 15.2533 14.8135C15.2533 13.8802 15.9333 13.1202 16.8 13.1202Z" fill="white"/>
</svg>
