<svg width="28" height="28" viewBox="0 0 28 28" fill="none" xmlns="http://www.w3.org/2000/svg">
<path d="M14 0.720215C6.66663 0.720215 0.666626 6.70688 0.666626 14.0802C0.666626 20.7469 5.54663 26.2802 11.92 27.2802V17.9469H8.53329V14.0802H11.92V11.1335C11.92 7.78688 13.9066 5.94688 16.96 5.94688C18.4133 5.94688 19.9333 6.20022 19.9333 6.20022V9.49355H18.2533C16.6 9.49355 16.08 10.5202 16.08 11.5735V14.0802H19.7866L19.1866 17.9469H16.08V27.2802C19.2219 26.784 22.0829 25.1809 24.1465 22.7603C26.2102 20.3397 27.3404 17.2611 27.3333 14.0802C27.3333 6.70688 21.3333 0.720215 14 0.720215Z" fill="white"/>
</svg>
