<svg width="28" height="28" viewBox="0 0 28 28" fill="none" xmlns="http://www.w3.org/2000/svg">
<path d="M17.3333 18.5465C17.44 18.6665 17.44 18.9198 17.3333 19.0665C16.36 19.9998 14.5466 20.0798 14 20.0798C13.48 20.0798 11.6666 19.9998 10.72 19.0665C10.5866 18.9198 10.5866 18.6665 10.72 18.5465C10.8666 18.4132 11.0933 18.4132 11.2266 18.5465C11.84 19.1598 13.1066 19.3332 14 19.3332C14.92 19.3332 16.2133 19.1598 16.8 18.5465C16.9466 18.4132 17.1733 18.4132 17.3333 18.5465ZM12.3333 15.3865C12.3333 14.6265 11.7066 13.9998 10.9466 13.9998C10.1866 13.9998 9.55996 14.6265 9.55996 15.3865C9.55996 16.1465 10.1866 16.7865 10.9466 16.7732C11.7066 16.7732 12.3333 16.1465 12.3333 15.3865ZM17.0533 13.9998C16.2933 13.9998 15.6666 14.6665 15.6666 15.3998C15.6666 16.1332 16.2933 16.7865 17.0533 16.7865C17.8133 16.7865 18.44 16.1465 18.44 15.3998C18.44 14.6665 17.8133 13.9998 17.0533 13.9998ZM27.3333 13.9998C27.3333 21.3332 21.3333 27.3332 14 27.3332C6.66663 27.3332 0.666626 21.3332 0.666626 13.9998C0.666626 6.6665 6.66663 0.666504 14 0.666504C21.3333 0.666504 27.3333 6.6665 27.3333 13.9998ZM22.8933 13.9998C22.8933 12.9198 22 12.0532 20.96 12.0532C20.4266 12.0532 19.9466 12.2665 19.6 12.5998C18.2666 11.6398 16.44 11.0265 14.4 10.9465L15.2933 6.77317L18.1866 7.39984C18.2133 8.13317 18.8266 8.71984 19.5733 8.71984C20.3333 8.71984 20.96 8.09317 20.96 7.33317C20.96 6.57317 20.3333 5.9465 19.5733 5.9465C19.0266 5.9465 18.5466 6.2665 18.3333 6.73317L15.0933 6.03984C15 5.99984 14.9066 6.03984 14.84 6.09317C14.76 6.1465 14.72 6.2265 14.7066 6.31984L13.72 10.9598C11.6533 11.0265 9.78663 11.6398 8.42663 12.6132C8.07996 12.2798 7.59996 12.0798 7.07996 12.0798C5.99996 12.0798 5.13329 12.9465 5.13329 13.9998C5.13329 14.8132 5.61329 15.4798 6.27996 15.7865C6.25329 15.9998 6.23996 16.1598 6.23996 16.3732C6.23996 19.3332 9.71996 21.7998 14 21.7998C18.3066 21.7998 21.8 19.3732 21.8 16.3732C21.8 16.1865 21.7866 15.9998 21.7466 15.7865C22.4133 15.4798 22.8933 14.7998 22.8933 13.9998Z" fill="white"/>
</svg>
