<svg width="24" height="24" viewBox="0 0 24 24" fill="none" xmlns="http://www.w3.org/2000/svg">
<path d="M20.64 7.28V5C20.64 3.9 19.776 3 18.72 3H5.28C4.2144 3 3.36 3.9 3.36 5V19C3.36 20.1 4.2144 21 5.28 21H18.72C19.776 21 20.64 20.1 20.64 19V16.72C21.2064 16.37 21.6 15.74 21.6 15V9C21.6 8.26 21.2064 7.63 20.64 7.28ZM19.68 9V15H12.96V9H19.68ZM5.28 19V5H18.72V7H12.96C11.904 7 11.04 7.9 11.04 9V15C11.04 16.1 11.904 17 12.96 17H18.72V19H5.28Z" fill="white"/>
<path d="M15.84 13.5C16.6353 13.5 17.28 12.8284 17.28 12C17.28 11.1716 16.6353 10.5 15.84 10.5C15.0447 10.5 14.4 11.1716 14.4 12C14.4 12.8284 15.0447 13.5 15.84 13.5Z" fill="#2CCE8F"/>
</svg>
